<svg width="1440" height="815" viewBox="0 0 1440 815" fill="none" xmlns="http://www.w3.org/2000/svg">
<path opacity="0.6" fill-rule="evenodd" clip-rule="evenodd" d="M37.3688 14.3627L248.31 146.878C260.937 154.811 264.743 171.477 256.81 184.104L73.0299 476.65C65.0976 489.276 48.4311 493.082 35.8042 485.15L-175.137 352.634C-187.764 344.702 -191.57 328.035 -183.637 315.408L0.143129 22.8629C8.07545 10.2361 24.7419 6.43041 37.3688 14.3627ZM33.6451 20.2901L244.586 152.806C253.94 158.682 256.759 171.027 250.883 180.38L67.1024 472.926C61.2267 482.279 48.8811 485.098 39.5279 479.222L-171.413 346.707C-180.767 340.831 -183.586 328.485 -177.71 319.132L6.07055 26.5866C11.9463 17.2334 24.2919 14.4144 33.6451 20.2901ZM48.785 231.243C44.7491 237.388 39.1012 242.305 32.4589 245.456C25.8488 248.669 18.4066 249.758 11.153 248.574C2.97606 247.283 -4.84374 244.308 -11.8113 239.838C-17.4934 236.559 -22.4061 232.099 -26.2178 226.759C-30.0295 221.42 -32.6518 215.325 -33.9073 208.886C-36.1252 196.111 -32.2122 182.636 -22.7283 167.539L-19.6523 162.643C-14.404 154.216 -7.50756 146.935 0.623337 141.238C7.77853 136.46 16.1474 133.822 24.7488 133.632C33.5709 133.776 42.1716 136.417 49.5544 141.248C59.9198 147.261 67.8773 156.685 72.0688 167.911C73.6516 173.357 74.1078 179.067 73.4099 184.695C72.7119 190.322 70.8743 195.748 68.0093 200.642L45.1602 186.288C46.7707 184.087 47.9091 181.577 48.5041 178.915C49.0991 176.253 49.138 173.497 48.6181 170.82C46.78 165.769 43.0799 161.612 38.2762 159.201C35.8794 157.459 33.0515 156.407 30.0991 156.157C27.1466 155.907 24.1821 156.469 21.5265 157.784C14.4147 162.129 8.58402 168.285 4.63016 175.622L0.272632 182.558C-4.86696 189.824 -8.33945 198.135 -9.89677 206.898C-9.90407 209.94 -9.07183 212.924 -7.49173 215.523C-5.91162 218.122 -3.64494 220.235 -0.941254 221.629C3.18997 224.831 8.41737 226.274 13.6063 225.646C16.1032 225.036 18.4488 223.922 20.499 222.372C22.5492 220.822 24.2608 218.869 25.5281 216.633L48.785 231.243ZM73.0861 290.096C77.3329 290.586 81.6354 290.05 85.6326 288.534L81.0187 295.879L101.828 308.951L146.428 237.955L124.395 224.114L93.1233 273.892C90.9215 275.055 88.4271 275.546 85.949 275.304C83.471 275.062 81.1183 274.098 79.1827 272.532L77.5505 271.507C76.5755 270.727 75.7667 269.759 75.1719 268.661C74.5772 267.563 74.2085 266.357 74.0876 265.114C73.9666 263.871 74.096 262.616 74.468 261.424C74.84 260.232 75.4471 259.127 76.2534 258.173L105.218 212.067L83.1847 198.225L54.2202 244.332C49.3531 251.118 47.1524 259.457 48.037 267.761C48.7619 271.547 50.3219 275.123 52.6031 278.23C54.8844 281.336 57.8295 283.895 61.2243 285.72C64.7716 288.106 68.8393 289.606 73.0861 290.096ZM28.2701 90.8893L11.1331 80.1237L13.6964 76.0435L27.8569 70.7132C29.4015 70.1041 30.8622 69.3008 32.2039 68.3227C33.2207 67.7221 34.108 66.9255 34.8143 65.9792C35.6591 64.9056 36.0963 63.5676 36.0488 62.2024C36.0784 61.7105 35.975 61.2197 35.7497 60.7815C35.5244 60.3433 35.1855 59.9738 34.7682 59.7117C34.351 59.4496 33.871 59.3046 33.3784 59.2918C32.8858 59.2791 32.3988 59.399 31.9686 59.6391C30.7668 60.5203 29.7127 61.5867 28.8456 62.7986L23.1332 59.21C24.2223 57.5155 25.6957 56.1016 27.4334 55.0828C29.0512 54.1752 30.8966 53.7539 32.748 53.8693C34.6181 53.8798 36.4446 54.4341 38.0051 55.4648C40.1711 56.8974 41.8568 58.9476 42.8438 61.3497C43.1867 62.6359 43.2013 63.9877 42.886 65.2809C42.5706 66.5742 41.9355 67.7676 41.0391 68.7516C39.95 70.4462 38.4769 71.8601 36.7392 72.8789C34.3066 74.484 31.6303 75.6852 28.8142 76.4359L21.8096 79.4333L31.6022 85.5851L28.2701 90.8893ZM47.3997 88.9936C48.3227 89.0836 49.2542 88.9811 50.1355 88.6924C48.5302 90.3831 46.5504 91.6731 44.3553 92.4587C42.2705 92.7326 40.1585 92.2176 38.4337 91.0149L38.0258 90.7586L34.9499 95.6549L35.3578 95.9112C37.0865 97.0886 39.0577 97.863 41.1255 98.1772C43.1934 98.4913 45.3051 98.3372 47.3055 97.7264C51.8401 96.0246 55.5679 92.678 57.7469 88.3524L59.0285 86.3123C60.3372 84.2059 61.2269 81.8666 61.6491 79.4229C62.0872 77.4745 61.9862 75.4437 61.3564 73.5486C61.107 72.6123 60.6718 71.7358 60.0769 70.971C59.4821 70.2063 58.7394 69.5689 57.8933 69.0969C56.4307 68.2135 54.7528 67.7502 53.0441 67.7578C51.187 67.9146 49.405 68.5627 47.881 69.6356C46.0491 70.7963 44.494 72.3444 43.3248 74.1709C41.8331 76.6545 41.033 79.4919 41.0074 82.3889C41.1468 83.5777 41.5594 84.718 42.2128 85.7208C42.8662 86.7236 43.7425 87.5616 44.7737 88.1692C45.5825 88.6229 46.4768 88.9035 47.3997 88.9936ZM51.1776 85.103C50.5008 85.1941 49.813 85.0544 49.2254 84.7064C48.3578 84.1346 47.6833 83.3141 47.2901 82.3524C47.4176 80.685 48.0242 79.09 49.0372 77.7595C49.9861 76.4139 51.1243 75.2123 52.4165 74.192C52.8073 73.7802 53.3285 73.5163 53.8918 73.4453C54.455 73.3744 55.0255 73.5008 55.5063 73.8028C55.987 74.1048 56.3483 74.5637 56.5288 75.102C56.7094 75.6402 56.6981 76.2244 56.4968 76.7552C56.3179 78.5787 55.6227 80.3134 54.493 81.756L52.9551 84.2041C52.4805 84.6951 51.8544 85.0118 51.1776 85.103ZM-32.2957 263.388L-40.064 287.529L-21.6873 270.053L-13.9348 274.923L-32.1338 303.892L-37.8462 300.304L-32.976 292.551L-24.8784 280.567L-43.1504 296.971L-47.2306 294.408L-40.3831 270.827L-47.6647 283.324L-52.5348 291.076L-58.2472 287.487L-40.0482 258.518L-32.2957 263.388ZM-12.3553 298.677L-3.37881 304.316L-0.559237 299.828L-9.53574 294.189L-5.17828 287.252L5.43041 293.917L8.50631 289.02L-8.22269 278.511L-26.4217 307.481L-9.69265 317.99L-6.61675 313.094L-17.2254 306.429L-12.3553 298.677ZM13.6952 342.356L8.39103 339.024L13.0048 331.68L-0.86799 322.965L-5.22551 329.901L-10.9379 326.313L-3.9124 314.224L-1.87229 315.505C-0.327716 314.896 1.13302 314.093 2.47471 313.115C4.16359 311.332 6.10849 309.141 8.05357 306.95L8.05616 306.947L17.331 293.995L34.0597 304.504L18.9367 328.578L21.7928 330.372L13.6952 342.356ZM4.3996 320.014L12.9682 325.397L25.0153 306.22L19.7111 302.888L14.1765 310.792C11.4632 314.398 8.15721 317.516 4.3996 320.014ZM43.3083 325.109L39.636 322.803L39.2281 322.546L46.1489 311.53L40.4365 307.941L22.2375 336.911L32.0301 343.062C33.1946 344.022 34.5681 344.694 36.04 345.026C37.5119 345.358 39.0411 345.339 40.5045 344.972C43.2543 344.225 45.6038 342.434 47.0536 339.981C47.9365 338.858 48.5456 337.544 48.8325 336.143C49.1195 334.743 49.0764 333.296 48.7068 331.915C47.8081 329.059 45.8854 326.635 43.3083 325.109ZM30.9211 336.675L36.5601 327.699L40.2324 330.006C40.7777 330.328 41.2466 330.765 41.6069 331.286C41.9672 331.807 42.2105 332.4 42.3197 333.024C42.133 334.346 41.7152 335.624 41.0852 336.801C40.9122 337.482 40.5518 338.1 40.0452 338.586C39.5385 339.073 38.9057 339.407 38.2185 339.552C37.6089 339.725 36.9691 339.763 36.3433 339.665C35.7175 339.566 35.1205 339.333 34.5933 338.982L30.9211 336.675ZM-71.3879 315.651L-73.4385 318.915L-74.2546 318.403C-76.7802 316.821 -79.769 316.148 -82.7287 316.493C-85.6369 317.36 -88.1745 319.169 -89.9424 321.635C-88.6491 321.223 -87.2744 321.135 -85.939 321.379C-84.6037 321.622 -83.3487 322.19 -82.2841 323.032C-81.1247 323.705 -80.1183 324.612 -79.3292 325.695C-78.5402 326.779 -77.986 328.015 -77.7018 329.325C-77.3961 332.364 -78.1124 335.418 -79.7372 338.005C-81.362 340.591 -83.8025 342.562 -86.6731 343.606C-89.5044 344.27 -92.4829 343.825 -94.9958 342.361C-96.3028 341.508 -97.414 340.388 -98.2562 339.074C-99.0984 337.76 -99.6523 336.283 -99.8814 334.739C-100.179 331.29 -99.2285 327.848 -97.2032 325.041L-96.1779 323.409C-93.8343 318.833 -89.9572 315.226 -85.2241 313.219C-83.0446 312.575 -80.7509 312.413 -78.5026 312.744C-76.2542 313.076 -74.105 313.893 -72.204 315.138L-71.3879 315.651ZM-84.4866 325.632C-85.7498 324.855 -87.2214 324.485 -88.7018 324.573C-90.1822 324.661 -91.5997 325.203 -92.762 326.124L-93.5309 327.348C-94.8955 329.322 -95.5822 331.687 -95.4875 334.085C-95.4178 335.019 -95.1278 335.923 -94.6413 336.723C-94.1548 337.523 -93.4859 338.197 -92.6889 338.688C-91.9489 339.3 -91.0432 339.676 -90.0879 339.769C-89.1326 339.863 -88.1713 339.668 -87.3271 339.212C-85.4282 338.398 -83.8222 337.025 -82.7232 335.275C-81.6242 333.526 -81.0844 331.483 -81.1753 329.419C-82.0435 327.969 -83.165 326.686 -84.4866 325.632ZM-63.013 338.553L-65.8692 336.759L-66.1829 339.976L-63.3269 341.77C-62.4628 342.153 -61.6865 342.709 -61.0467 343.405C-60.4068 344.101 -59.917 344.921 -59.6075 345.814C-59.2509 347.572 -59.5844 349.4 -60.5388 350.919C-61.4932 352.438 -62.9952 353.532 -64.734 353.974C-66.4512 354.051 -68.1486 353.582 -69.5831 352.635C-70.3828 352.291 -71.0954 351.772 -71.6684 351.117C-72.2414 350.461 -72.6602 349.686 -72.8944 348.848C-73.1585 348.067 -73.2349 347.234 -73.1177 346.418C-73.0005 345.602 -72.6929 344.825 -72.2197 344.15L-75.8917 341.843C-77.2132 344.015 -77.6232 346.621 -77.0322 349.093C-75.9595 351.633 -74.1268 353.779 -71.7856 355.235C-69.3823 356.736 -66.5192 357.323 -63.7191 356.888C-62.4092 356.604 -61.173 356.049 -60.0894 355.26C-59.0059 354.471 -58.0988 353.465 -57.4263 352.305C-56.4793 350.871 -56.0105 349.173 -56.0871 347.456C-56.1634 345.656 -56.9274 343.954 -58.2214 342.701C-56.6207 343.103 -54.932 342.963 -53.4191 342.304C-51.9773 341.713 -50.7469 340.701 -49.8882 339.4C-49.1356 338.291 -48.6228 337.037 -48.3823 335.719C-48.1418 334.4 -48.179 333.045 -48.4916 331.742C-49.6214 329.238 -51.4413 327.108 -53.7382 325.601C-56.109 324.02 -59.0029 323.427 -61.8044 323.948C-64.2884 324.489 -66.4583 325.989 -67.8412 328.122L-64.1689 330.429C-63.1939 329.126 -61.8051 328.192 -60.2301 327.782C-58.6688 327.615 -57.0981 327.998 -55.7888 328.865L-54.5648 329.634C-53.524 330.606 -52.9053 331.947 -52.8418 333.37C-52.7782 334.793 -53.2747 336.184 -54.2247 337.245C-54.672 337.926 -55.2507 338.512 -55.9271 338.966C-56.6035 339.421 -57.364 339.735 -58.1638 339.892C-59.881 339.969 -61.5785 339.5 -63.013 338.553ZM-56.4797 362.574C-56.1794 361.96 -55.6715 361.473 -55.0462 361.198C-54.3265 361.051 -53.5794 361.124 -52.9016 361.407C-52.0856 361.92 -51.6775 362.176 -51.7821 363.249C-51.8867 364.321 -51.8868 364.321 -52.3991 365.136L-52.3995 365.137C-52.6997 365.751 -53.2074 366.238 -53.8327 366.513C-54.497 366.665 -55.5695 366.56 -55.7212 365.896C-55.7971 365.563 -56.103 365.371 -56.409 365.179C-56.715 364.987 -57.021 364.794 -57.0968 364.462C-57.2485 363.798 -56.9923 363.39 -56.4797 362.574ZM-26.0971 344.103L-36.7006 357.359L-34.1008 359.561L-32.772 359.258C-31.2107 359.091 -29.6403 359.474 -28.331 360.34C-27.5476 360.776 -26.8684 361.376 -26.3408 362.101C-25.8132 362.826 -25.4499 363.656 -25.2761 364.536C-25.0944 365.487 -25.1059 366.466 -25.3099 367.413C-25.5139 368.36 -25.9061 369.257 -26.4635 370.049C-27.4953 371.881 -29.1744 373.262 -31.1715 373.92C-32.0344 374.189 -32.9497 374.245 -33.8389 374.083C-34.7281 373.921 -35.5648 373.545 -36.2771 372.989C-37.5775 372.13 -38.589 370.9 -39.1801 369.458C-39.4941 367.861 -39.2563 366.205 -38.5054 364.761L-41.7695 362.71C-42.4541 363.896 -42.8944 365.208 -43.0642 366.567C-43.234 367.926 -43.1298 369.306 -42.7581 370.625C-41.8368 373.065 -40.136 375.134 -37.9194 376.51C-36.755 377.469 -35.3817 378.141 -33.9098 378.473C-32.4379 378.805 -30.9087 378.786 -29.4453 378.419C-26.5887 377.52 -24.1649 375.598 -22.6396 373.021C-21.0583 370.495 -20.385 367.506 -20.7304 364.546C-21.0145 363.236 -21.5688 362 -22.3578 360.916C-23.1469 359.833 -24.1533 358.926 -25.3127 358.253C-27.0294 357.199 -28.9701 356.565 -30.9778 356.401L-25.2917 349.161L-13.459 356.595L-11.4085 353.331L-26.0971 344.103ZM-3.05498 385.324L1.02522 387.887L-0.768987 390.743L-4.84919 388.18L-8.95038 394.708L-12.6227 392.401L-8.52147 385.873L-21.5779 377.671L-20.2963 375.631L5.31996 363.84L9.40016 366.403L-3.05498 385.324ZM-15.7035 377.378L-6.72727 383.017L2.24405 368.736L1.32353 369.296L-15.7035 377.378ZM28.5666 382.996L30.6171 379.732L29.8011 379.219C27.9001 377.974 25.7509 377.157 23.5025 376.825C21.2542 376.494 18.9605 376.655 16.781 377.299C12.0479 379.307 8.17075 382.914 5.82716 387.489L4.80189 389.122C2.77658 391.929 1.82633 395.371 2.12369 398.82C2.35282 400.364 2.90669 401.841 3.74888 403.155C4.59109 404.469 5.70228 405.589 7.00931 406.441C9.52222 407.905 12.5007 408.351 15.332 407.687C18.2026 406.643 20.6431 404.672 22.2679 402.086C23.8927 399.499 24.609 396.445 24.3033 393.406C24.0191 392.096 23.4649 390.86 22.6758 389.776C21.8868 388.693 20.8804 387.786 19.7209 387.113C18.6564 386.271 17.4014 385.703 16.066 385.459C14.7307 385.216 13.356 385.304 12.0627 385.716C13.8306 383.25 16.3682 381.441 19.2764 380.574C22.2361 380.229 25.2249 380.902 27.7505 382.483L28.5666 382.996ZM13.7115 388.911C15.1919 388.823 16.6634 389.192 17.9266 389.969C19.2475 391.024 20.369 392.307 21.2379 393.756C21.3289 395.82 20.7888 397.863 19.6898 399.612C18.5908 401.362 16.9851 402.735 15.0862 403.549C14.242 404.006 13.2807 404.2 12.3254 404.107C11.3701 404.013 10.4643 403.637 9.72436 403.026C8.9274 402.534 8.25817 401.86 7.77173 401.06C7.28526 400.26 6.99543 399.356 6.92578 398.422C6.83108 396.024 7.51753 393.659 8.88211 391.685L9.65105 390.461C10.8134 389.54 12.2311 388.999 13.7115 388.911Z" fill="url(#paint0_linear_64_494)"/>
<path opacity="0.4" fill-rule="evenodd" clip-rule="evenodd" d="M1092.87 365.246L1291.77 477.226C1304.76 484.542 1309.36 501.006 1302.05 514L1146.2 790.816C1138.88 803.81 1122.42 808.413 1109.43 801.097L910.528 689.117C897.534 681.801 892.931 665.337 900.246 652.343L1056.09 375.527C1063.41 362.534 1079.87 357.93 1092.87 365.246ZM1089.43 371.346L1288.33 483.326C1297.96 488.745 1301.37 500.94 1295.95 510.566L1140.1 787.382C1134.68 797.007 1122.48 800.416 1112.86 794.997L913.962 683.017C904.337 677.598 900.927 665.403 906.346 655.778L1062.19 378.962C1067.61 369.337 1079.81 365.927 1089.43 371.346ZM1111.63 565.47C1108.16 571.345 1103.14 576.154 1097.13 579.371C1091.15 582.644 1084.3 583.985 1077.52 583.211C1069.89 582.38 1062.51 579.972 1055.85 576.14C1050.44 573.355 1045.69 569.441 1041.91 564.662C1038.14 559.884 1035.44 554.352 1033.99 548.441C1031.36 536.701 1034.39 524.037 1042.5 509.623L1045.14 504.948C1049.62 496.903 1055.69 489.847 1062.97 484.204C1069.39 479.457 1077.03 476.638 1084.99 476.078C1093.17 475.818 1101.26 477.881 1108.32 482.03C1118.2 487.14 1125.99 495.518 1130.38 505.735C1132.09 510.711 1132.76 515.983 1132.37 521.23C1131.97 526.476 1130.51 531.587 1128.08 536.25L1106.26 523.967C1107.65 521.855 1108.6 519.478 1109.03 516.985C1109.46 514.492 1109.37 511.936 1108.77 509.477C1106.84 504.879 1103.23 501.192 1098.67 499.172C1096.37 497.664 1093.7 496.815 1090.96 496.715C1088.21 496.615 1085.49 497.269 1083.08 498.606C1076.69 502.95 1071.56 508.916 1068.22 515.892L1064.49 522.515C1060.05 529.478 1057.21 537.336 1056.15 545.526C1056.28 548.346 1057.19 551.075 1058.77 553.413C1060.35 555.751 1062.54 557.608 1065.11 558.779C1069.08 561.562 1073.99 562.666 1078.77 561.853C1081.06 561.176 1083.18 560.039 1085.01 558.511C1086.85 556.983 1088.34 555.096 1089.42 552.967L1111.63 565.47ZM1136.77 618.928C1140.73 619.192 1144.7 618.504 1148.33 616.921L1144.38 623.933L1164.25 635.12L1202.42 567.331L1181.38 555.487L1154.62 603.017C1152.63 604.192 1150.34 604.758 1148.04 604.645C1145.73 604.532 1143.5 603.743 1141.64 602.378L1140.08 601.501C1139.14 600.821 1138.35 599.961 1137.75 598.97C1137.15 597.978 1136.76 596.877 1136.59 595.731C1136.42 594.584 1136.48 593.416 1136.78 592.294C1137.07 591.173 1137.58 590.121 1138.29 589.201L1163.07 545.178L1142.03 533.333L1117.25 577.357C1113.04 583.864 1111.37 591.691 1112.56 599.347C1113.4 602.823 1115.01 606.068 1117.26 608.845C1119.51 611.622 1122.36 613.862 1125.59 615.402C1128.98 617.455 1132.82 618.664 1136.77 618.928ZM1086.35 436.308L1069.98 427.096L1072.18 423.2L1085.06 417.628C1086.47 416.994 1087.79 416.184 1088.99 415.218C1089.9 414.616 1090.69 413.838 1091.3 412.929C1092.03 411.897 1092.38 410.637 1092.28 409.374C1092.28 408.917 1092.16 408.467 1091.93 408.071C1091.71 407.675 1091.38 407.347 1090.98 407.123C1090.58 406.899 1090.13 406.786 1089.67 406.796C1089.21 406.806 1088.77 406.939 1088.38 407.181C1087.3 408.051 1086.38 409.086 1085.63 410.248L1080.17 407.177C1081.11 405.558 1082.41 404.182 1083.97 403.16C1085.43 402.247 1087.12 401.774 1088.84 401.798C1090.58 401.725 1092.3 402.157 1093.79 403.042C1095.86 404.273 1097.51 406.098 1098.53 408.28C1098.91 409.457 1098.98 410.709 1098.75 411.922C1098.51 413.135 1097.98 414.269 1097.19 415.221C1096.26 416.84 1094.96 418.216 1093.39 419.238C1091.21 420.834 1088.78 422.067 1086.21 422.888L1079.85 425.979L1089.2 431.243L1086.35 436.308ZM1103.99 433.697C1104.85 433.739 1105.71 433.603 1106.51 433.296C1105.1 434.934 1103.32 436.218 1101.32 437.044C1099.4 437.391 1097.42 437.008 1095.77 435.97L1095.38 435.751L1092.75 440.426L1093.14 440.646C1094.79 441.66 1096.66 442.289 1098.59 442.488C1100.52 442.687 1102.47 442.45 1104.29 441.795C1108.42 440.015 1111.73 436.747 1113.55 432.641L1114.65 430.693C1115.77 428.682 1116.49 426.474 1116.77 424.191C1117.09 422.366 1116.9 420.488 1116.24 418.76C1115.96 417.903 1115.52 417.11 1114.94 416.428C1114.35 415.746 1113.63 415.188 1112.83 414.789C1111.43 414.035 1109.86 413.681 1108.27 413.764C1106.56 413.992 1104.94 414.672 1103.57 415.735C1101.93 416.892 1100.55 418.396 1099.55 420.141C1098.28 422.51 1097.67 425.175 1097.77 427.861C1097.95 428.957 1098.39 429.995 1099.04 430.895C1099.69 431.796 1100.54 432.533 1101.52 433.05C1102.29 433.434 1103.13 433.655 1103.99 433.697ZM1107.32 429.923C1106.7 430.037 1106.05 429.938 1105.49 429.642C1104.66 429.151 1104 428.421 1103.59 427.547C1103.64 425.996 1104.13 424.491 1105.01 423.212C1105.83 421.923 1106.83 420.758 1107.98 419.755C1108.32 419.356 1108.79 419.088 1109.31 418.997C1109.83 418.906 1110.37 418.998 1110.83 419.256C1111.28 419.515 1111.64 419.924 1111.83 420.415C1112.02 420.906 1112.04 421.448 1111.88 421.948C1111.79 423.646 1111.22 425.285 1110.24 426.673L1108.93 429.01C1108.51 429.486 1107.94 429.808 1107.32 429.923ZM1037.92 598.881L1031.79 621.601L1048.05 604.583L1055.45 608.751L1039.87 636.412L1034.42 633.341L1038.59 625.939L1045.56 614.47L1029.36 630.49L1025.46 628.296L1030.75 606.135L1024.56 618.043L1020.4 625.445L1014.94 622.374L1030.51 594.713L1037.92 598.881ZM1057.97 630.695L1066.54 635.521L1068.96 631.235L1060.39 626.41L1064.11 619.787L1074.24 625.49L1076.88 620.815L1060.9 611.822L1045.33 639.482L1061.3 648.475L1063.93 643.8L1053.8 638.097L1057.97 630.695ZM1084.07 670.014L1079 667.162L1082.95 660.15L1069.7 652.692L1065.97 659.315L1060.52 656.244L1066.49 644.727L1068.44 645.823C1069.84 645.19 1071.16 644.38 1072.36 643.414C1073.85 641.686 1075.55 639.569 1077.26 637.452L1077.26 637.449L1085.28 625.031L1101.25 634.024L1088.31 657.01L1091.04 658.545L1084.07 670.014ZM1074.45 649.722L1082.63 654.329L1092.94 636.018L1087.88 633.167L1083.1 640.739C1080.75 644.202 1077.82 647.239 1074.45 649.722ZM1110.74 652.707L1107.23 650.733L1106.84 650.514L1112.77 639.995L1107.31 636.924L1091.74 664.585L1101.09 669.849C1102.21 670.687 1103.51 671.249 1104.89 671.49C1106.27 671.732 1107.69 671.646 1109.03 671.241C1111.54 670.426 1113.64 668.661 1114.88 666.323C1115.64 665.242 1116.15 663.997 1116.35 662.687C1116.56 661.377 1116.45 660.037 1116.05 658.774C1115.09 656.167 1113.2 654.006 1110.74 652.707ZM1099.78 663.979L1104.6 655.408L1108.11 657.383C1108.63 657.657 1109.08 658.041 1109.44 658.508C1109.8 658.975 1110.05 659.513 1110.18 660.087C1110.06 661.32 1109.73 662.523 1109.2 663.642C1109.07 664.281 1108.77 664.87 1108.32 665.343C1107.87 665.817 1107.3 666.155 1106.67 666.32C1106.11 666.507 1105.52 666.571 1104.94 666.508C1104.35 666.445 1103.79 666.256 1103.28 665.953L1099.78 663.979ZM1004.02 649.062L1002.27 652.179L1001.49 651.74C999.075 650.387 996.275 649.897 993.547 650.349C990.89 651.282 988.619 653.072 987.091 655.437C988.271 654.997 989.541 654.854 990.79 655.02C992.038 655.186 993.227 655.656 994.251 656.389C995.355 656.961 996.329 657.757 997.108 658.726C997.888 659.695 998.457 660.816 998.779 662.017C999.198 664.82 998.67 667.682 997.28 670.152C995.889 672.621 993.716 674.557 991.102 675.653C988.507 676.395 985.727 676.115 983.333 674.87C982.083 674.138 981.004 673.15 980.164 671.97C979.325 670.79 978.746 669.445 978.465 668.025C978.035 664.841 978.762 661.609 980.514 658.917L981.391 657.358C983.359 653.013 986.791 649.497 991.088 647.425C993.079 646.731 995.198 646.479 997.296 646.686C999.395 646.893 1001.42 647.554 1003.24 648.623L1004.02 649.062ZM992.326 658.897C991.12 658.233 989.74 657.957 988.372 658.104C987.004 658.252 985.714 658.817 984.678 659.722L984.02 660.891C982.844 662.782 982.313 665.004 982.508 667.222C982.614 668.085 982.923 668.91 983.41 669.63C983.896 670.349 984.546 670.944 985.307 671.364C986.02 671.897 986.876 672.206 987.766 672.249C988.655 672.293 989.538 672.07 990.3 671.609C992.023 670.77 993.45 669.426 994.391 667.756C995.331 666.085 995.74 664.168 995.564 662.259C994.694 660.954 993.598 659.815 992.326 658.897ZM1012.8 669.913L1010.08 668.378L1009.93 671.373L1012.66 672.909C1013.47 673.225 1014.22 673.706 1014.84 674.322C1015.47 674.939 1015.96 675.676 1016.28 676.49C1016.69 678.104 1016.47 679.813 1015.65 681.263C1014.83 682.714 1013.49 683.795 1011.9 684.282C1010.31 684.43 1008.72 684.071 1007.34 683.257C1006.59 682.974 1005.9 682.525 1005.34 681.943C1004.78 681.362 1004.36 680.662 1004.11 679.895C1003.83 679.183 1003.72 678.415 1003.79 677.654C1003.86 676.892 1004.11 676.158 1004.52 675.512L1001.02 673.538C999.887 675.609 999.624 678.043 1000.28 680.308C1001.39 682.614 1003.18 684.52 1005.42 685.765C1007.71 687.049 1010.39 687.465 1012.97 686.937C1014.17 686.615 1015.29 686.046 1016.26 685.267C1017.23 684.487 1018.02 683.514 1018.6 682.409C1019.41 681.038 1019.77 679.443 1019.62 677.855C1019.47 676.191 1018.69 674.647 1017.43 673.544C1018.93 673.845 1020.49 673.64 1021.86 672.961C1023.17 672.349 1024.27 671.356 1025.01 670.113C1025.65 669.051 1026.07 667.866 1026.24 666.633C1026.4 665.4 1026.31 664.147 1025.96 662.953C1024.8 660.682 1023.02 658.789 1020.82 657.495C1018.55 656.136 1015.85 655.716 1013.27 656.324C1010.99 656.936 1009.05 658.423 1007.86 660.462L1011.37 662.436C1012.22 661.184 1013.46 660.257 1014.9 659.807C1016.34 659.582 1017.81 659.867 1019.07 660.612L1020.24 661.27C1021.24 662.125 1021.88 663.34 1022 664.656C1022.12 665.972 1021.72 667.283 1020.89 668.309C1020.51 668.96 1020 669.528 1019.39 669.98C1018.78 670.431 1018.09 670.757 1017.36 670.938C1015.77 671.085 1014.18 670.727 1012.8 669.913ZM1019.93 691.884C1020.18 691.302 1020.63 690.827 1021.2 690.545C1021.86 690.376 1022.55 690.411 1023.2 690.643C1023.97 691.082 1024.36 691.301 1024.32 692.299C1024.27 693.298 1024.27 693.298 1023.83 694.077L1023.83 694.077C1023.58 694.659 1023.13 695.134 1022.56 695.416C1021.95 695.586 1020.95 695.537 1020.78 694.928C1020.7 694.624 1020.41 694.459 1020.11 694.295C1019.82 694.13 1019.53 693.966 1019.44 693.661C1019.27 693.053 1019.49 692.663 1019.93 691.884ZM1047.26 673.409L1038.03 686.167L1040.54 688.092L1041.76 687.752C1043.19 687.527 1044.67 687.812 1045.92 688.557C1046.66 688.926 1047.32 689.452 1047.84 690.1C1048.36 690.748 1048.74 691.502 1048.94 692.309C1049.15 693.183 1049.18 694.09 1049.03 694.977C1048.89 695.864 1048.56 696.712 1048.08 697.472C1047.21 699.216 1045.71 700.57 1043.89 701.269C1043.11 701.557 1042.26 701.65 1041.43 701.54C1040.6 701.429 1039.8 701.118 1039.12 700.634C1037.88 699.897 1036.88 698.801 1036.27 697.492C1035.91 696.025 1036.06 694.48 1036.69 693.108L1033.57 691.353C1032.99 692.483 1032.64 693.718 1032.54 694.986C1032.45 696.253 1032.6 697.527 1033.01 698.732C1033.97 700.953 1035.64 702.794 1037.75 703.97C1038.88 704.808 1040.18 705.37 1041.56 705.611C1042.94 705.853 1044.35 705.767 1045.69 705.362C1048.3 704.401 1050.46 702.511 1051.76 700.055C1053.11 697.644 1053.6 694.843 1053.15 692.116C1052.83 690.914 1052.26 689.793 1051.48 688.824C1050.7 687.855 1049.73 687.06 1048.62 686.488C1046.99 685.588 1045.16 685.087 1043.29 685.025L1048.24 678.061L1059.54 684.422L1061.29 681.305L1047.26 673.409ZM1070.46 710.583L1074.36 712.776L1072.82 715.503L1068.92 713.31L1065.42 719.543L1061.91 717.569L1065.42 711.336L1052.95 704.317L1054.05 702.369L1077.26 690.298L1081.16 692.491L1070.46 710.583ZM1058.38 703.783L1066.95 708.609L1074.63 694.973L1073.8 695.533L1058.38 703.783ZM1099.66 707.014L1101.42 703.897L1100.64 703.458C1098.82 702.389 1096.79 701.728 1094.69 701.521C1092.6 701.314 1090.48 701.566 1088.49 702.26C1084.19 704.332 1080.76 707.848 1078.79 712.193L1077.91 713.752C1076.16 716.444 1075.43 719.676 1075.86 722.86C1076.14 724.28 1076.72 725.625 1077.56 726.805C1078.4 727.985 1079.48 728.973 1080.73 729.705C1083.12 730.95 1085.9 731.23 1088.5 730.487C1091.11 729.392 1093.29 727.456 1094.68 724.987C1096.07 722.517 1096.59 719.655 1096.18 716.852C1095.85 715.651 1095.29 714.53 1094.51 713.561C1093.73 712.592 1092.75 711.796 1091.65 711.224C1090.62 710.491 1089.44 710.021 1088.19 709.855C1086.94 709.689 1085.67 709.832 1084.49 710.272C1086.02 707.907 1088.29 706.117 1090.94 705.184C1093.67 704.732 1096.47 705.222 1098.88 706.575L1099.66 707.014ZM1086.16 713.159C1087.53 713.011 1088.91 713.288 1090.11 713.951C1091.38 714.87 1092.48 716.009 1093.35 717.313C1093.53 719.222 1093.12 721.14 1092.18 722.81C1091.24 724.48 1089.81 725.825 1088.09 726.664C1087.32 727.125 1086.44 727.348 1085.55 727.304C1084.66 727.26 1083.81 726.952 1083.09 726.418C1082.33 725.998 1081.68 725.404 1081.2 724.684C1080.71 723.964 1080.4 723.139 1080.29 722.277C1080.1 720.058 1080.63 717.836 1081.81 715.945L1082.46 714.776C1083.5 713.871 1084.79 713.306 1086.16 713.159Z" fill="url(#paint1_linear_64_494)"/>
<path opacity="0.6" fill-rule="evenodd" clip-rule="evenodd" d="M1168.54 200.271L1299.28 74.8648C1322 53.0731 1358.08 53.8242 1379.87 76.5426L1570.16 274.917C1591.95 297.636 1591.2 333.718 1568.48 355.51L1437.74 480.917C1415.02 502.708 1378.94 501.957 1357.15 479.239L1166.86 280.864C1145.07 258.146 1145.82 222.063 1168.54 200.271ZM1173.39 205.323L1304.13 79.9165C1324.06 60.801 1355.71 61.4599 1374.82 81.3883L1565.11 279.763C1584.22 299.691 1583.56 331.343 1563.63 350.458L1432.9 475.865C1412.97 494.981 1381.32 494.322 1362.2 474.393L1171.92 276.019C1152.8 256.09 1153.46 224.439 1173.39 205.323ZM1353.93 262.01C1358.77 267.269 1362.08 273.758 1363.48 280.769C1364.95 287.764 1364.22 295.042 1361.39 301.605C1358.24 309.014 1353.59 315.688 1347.72 321.206C1343.29 325.792 1337.92 329.373 1331.98 331.708C1326.05 334.043 1319.68 335.077 1313.31 334.741C1300.73 333.816 1288.94 326.942 1276.94 314.43L1273.05 310.371C1266.34 303.43 1261.1 295.204 1257.64 286.188C1254.83 278.31 1254.31 269.791 1256.17 261.632C1258.39 253.343 1262.91 245.853 1269.21 240.03C1277.33 231.671 1288.1 226.39 1299.68 225.087C1305.19 224.88 1310.69 225.798 1315.83 227.786C1320.97 229.773 1325.66 232.788 1329.6 236.647L1310.66 254.812C1308.96 252.773 1306.87 251.106 1304.5 249.916C1302.12 248.726 1299.53 248.039 1296.89 247.897C1291.69 248.438 1286.89 250.947 1283.48 254.909C1281.27 256.759 1279.61 259.178 1278.68 261.905C1277.75 264.631 1277.58 267.56 1278.19 270.376C1280.61 278.112 1285.04 285.066 1291.03 290.529L1296.54 296.278C1302.18 302.843 1309.2 308.081 1317.1 311.62C1319.97 312.345 1322.98 312.265 1325.81 311.388C1328.63 310.511 1331.16 308.872 1333.11 306.651C1337.11 303.509 1339.71 298.919 1340.34 293.875C1340.35 291.376 1339.86 288.9 1338.88 286.6C1337.9 284.299 1336.46 282.224 1334.65 280.5L1353.93 262.01ZM1342.1 225.307C1343.96 235.956 1349.23 245.716 1357.1 253.128C1364.31 261.495 1373.89 267.474 1384.58 270.271C1388.96 271.145 1393.5 270.89 1397.76 269.529C1402.02 268.169 1405.87 265.747 1408.93 262.493C1411.79 259.778 1413.95 256.42 1415.24 252.698C1416.53 248.977 1416.9 245.002 1416.34 241.104L1423.52 246.556L1440.09 230.662L1359.97 147.132L1341.7 164.649L1370.25 194.408C1366.79 194.068 1363.3 194.479 1360.02 195.612C1356.73 196.744 1353.73 198.573 1351.22 200.972C1347.79 203.946 1345.16 207.731 1343.57 211.981C1341.98 216.231 1341.47 220.812 1342.1 225.307ZM1400.38 243.423C1394.3 249.262 1386.39 247.109 1376.33 236.626L1373.42 232.919C1365.33 223.802 1363.83 216.149 1369.58 210.634C1371.2 208.798 1373.36 207.518 1375.75 206.973C1378.14 206.428 1380.64 206.646 1382.9 207.597L1404.31 229.917C1405.11 232.3 1405.16 234.871 1404.46 237.285C1403.76 239.699 1402.34 241.841 1400.38 243.423ZM1206.22 240.707L1208.25 238.761L1211.82 242.481L1209.79 244.427L1214.98 249.838L1210.25 254.379L1205.38 249.307L1197.6 256.767L1194.35 254.048L1187.22 230.369L1191.95 225.827L1206.22 240.707ZM1197.77 248.817L1201.49 245.248L1193.7 237.132L1197.77 248.817ZM1218.62 218.428C1218.07 217.086 1217.32 215.84 1216.38 214.736C1214.63 212.893 1212.33 211.679 1209.82 211.285C1207.41 211.399 1205.12 212.382 1203.38 214.052C1201.64 215.722 1200.57 217.965 1200.35 220.368C1200.72 222.867 1201.82 225.199 1203.53 227.062C1204.44 228.221 1205.7 229.059 1207.12 229.457C1208.42 229.821 1209.79 229.849 1211.1 229.54C1210.73 231.061 1210.7 232.643 1211 234.178C1211.62 236.18 1212.82 237.955 1214.44 239.285C1216.06 240.615 1218.04 241.44 1220.12 241.659C1222.65 241.366 1225 240.251 1226.82 238.484C1227.9 237.768 1228.78 236.792 1229.38 235.646C1229.98 234.501 1230.29 233.222 1230.27 231.928C1230.31 230.625 1230.08 229.328 1229.59 228.119C1229.1 226.911 1228.37 225.817 1227.43 224.909C1226.26 223.73 1224.79 222.897 1223.18 222.5C1221.65 222.138 1220.07 222.105 1218.54 222.404C1219.06 221.136 1219.09 219.717 1218.62 218.428ZM1224.31 233.887C1224.19 234.354 1223.93 234.775 1223.58 235.103C1223.18 235.482 1222.67 235.716 1222.13 235.765C1221.59 235.814 1221.04 235.675 1220.59 235.372C1218.37 234.376 1216.62 232.557 1215.72 230.299C1215.6 229.837 1215.6 229.349 1215.73 228.887C1215.86 228.425 1216.11 228.007 1216.45 227.675C1216.8 227.343 1217.23 227.111 1217.69 227.002C1218.16 226.893 1218.65 226.911 1219.1 227.055C1220.4 227.333 1221.56 228.061 1222.37 229.112C1223.25 230.074 1223.91 231.22 1224.29 232.466C1224.43 232.929 1224.44 233.421 1224.31 233.887ZM1209.36 217.573C1210.36 218.063 1211.25 218.759 1211.97 219.615C1212.77 220.391 1213.42 221.302 1213.9 222.307C1214.21 223.308 1214.2 223.97 1213.52 224.619C1212.84 225.268 1212.18 225.254 1211.19 224.902C1210.19 224.412 1209.3 223.716 1208.59 222.859C1208.08 222.583 1207.65 222.198 1207.31 221.733C1206.98 221.267 1206.75 220.732 1206.65 220.168C1206.66 219.915 1206.61 219.709 1206.58 219.533C1206.52 219.249 1206.47 219.043 1206.68 218.843C1206.9 218.342 1207.29 217.938 1207.78 217.704C1208.27 217.471 1208.83 217.424 1209.36 217.573ZM1426.18 421.272L1423.13 424.192L1403.67 403.901L1399.85 412.107L1397.26 409.402L1402.81 397.586L1403.15 397.262L1426.18 421.272ZM1442.07 406.026L1445.12 403.107L1422.08 379.096L1421.75 379.42L1416.2 391.236L1418.79 393.942L1422.61 385.735L1442.07 406.026ZM1469.8 379.427L1454.25 394.349L1452.3 392.32L1452 375.079C1451.96 373.076 1451.78 371.079 1451.46 369.102C1451.07 367.856 1450.42 366.71 1449.54 365.748C1448.51 364.621 1447.12 363.889 1445.6 363.678C1444.02 363.693 1442.49 364.245 1441.26 365.245C1440.6 365.813 1440.07 366.519 1439.71 367.313C1439.35 368.107 1439.17 368.969 1439.18 369.841C1439.19 370.783 1439.4 371.713 1439.78 372.575C1440.16 373.437 1440.71 374.213 1441.39 374.858L1438.35 377.778C1436.38 375.831 1435.25 373.191 1435.19 370.421C1435.56 367.547 1436.9 364.886 1438.99 362.877C1440.96 361.066 1443.4 359.852 1446.03 359.378C1448.5 359.404 1450.86 360.406 1452.6 362.166C1455.4 365.765 1456.73 370.295 1456.31 374.837L1456.7 388.103L1468.87 376.425L1469.8 379.427ZM1470.94 372.49C1471.05 373.145 1471.39 373.739 1471.9 374.167L1471.9 374.168C1472.55 374.844 1472.87 375.182 1473.54 375.196C1473.87 375.203 1474.12 374.959 1474.37 374.716C1474.63 374.473 1474.88 374.23 1475.21 374.236C1475.88 374.25 1476.23 373.263 1476.24 372.601C1476.13 371.946 1475.79 371.352 1475.28 370.924C1474.63 370.248 1474.63 370.247 1473.65 369.896L1473.65 369.895C1472.66 369.543 1472.32 369.868 1471.64 370.516C1471.22 371.089 1470.97 371.777 1470.94 372.49ZM1487.04 347.306L1490.42 344.062L1492.69 346.43L1489.31 349.673L1494.5 355.084L1491.46 358.004L1486.27 352.593L1475.45 362.973L1473.83 361.282L1468.75 334.331L1472.13 331.087L1487.04 347.306ZM1476.56 357.362L1484 350.226L1472.64 338.389L1472.96 339.39L1476.56 357.362ZM1508.02 342.772L1511.06 339.852L1488.03 315.842L1487.69 316.166L1482.14 327.982L1484.74 330.687L1488.55 322.481L1508.02 342.772ZM1367.39 390.783L1361.57 396.363L1341.07 392.522L1352.81 404.764L1347.71 409.663L1324.54 385.517L1329.65 380.618L1340.87 392.319L1338.31 372.314L1343.72 367.124L1346.05 387.158L1367.39 390.783ZM1372.9 385.496L1367.39 390.783L1352.65 358.362L1358.91 352.36L1390.72 368.401L1385.21 373.689L1377.94 369.626L1369.14 378.06L1372.9 385.496ZM1361.3 360.199L1372.5 366.398L1366.21 372.431C1362.61 365.242 1360.3 360.764 1359.3 358.997C1359.78 359.317 1360.44 359.717 1361.3 360.199ZM1386.93 364.113L1388.79 362.329C1387.4 357.774 1385.59 353.354 1383.4 349.126C1381.17 344.888 1378.6 340.835 1375.73 337.001L1389.8 323.507L1408.71 343.223L1412.09 339.979L1422.93 351.274L1417.72 356.27L1410.97 349.236L1395.86 363.735L1402.6 370.769L1397.77 375.408L1386.93 364.113ZM1383.72 337.201C1388.07 343.368 1391.58 350.083 1394.17 357.171L1403.5 348.218L1388.52 332.595L1383.72 337.201ZM1405.83 317.544L1429.81 330.902L1434.52 326.393L1422.77 301.358C1425.46 304.629 1427.24 306.489 1427.92 307.199L1429.71 309.059L1440.67 320.49L1445.44 315.916L1422.28 291.77L1415.31 298.452L1426.97 322.723L1403.54 309.741L1396.58 316.423L1419.74 340.569L1424.3 336.19L1413.53 324.962C1412.3 323.677 1409.73 321.204 1405.83 317.544ZM1428.26 286.029L1432.86 281.617L1444.05 293.284L1447.04 296.395L1450.28 299.777L1443.86 270.743L1449.98 264.872L1473.14 289.018L1468.51 293.462L1457.38 281.862C1455.89 280.307 1453.83 277.955 1451.2 274.807L1457.75 304.042L1451.39 310.141L1428.26 286.029ZM1460.76 254.855L1456.16 259.267L1479.56 283.119L1485.72 277.216L1479.17 247.98C1481.8 251.128 1483.86 253.48 1485.35 255.036L1496.48 266.635L1501.04 262.256L1477.88 238.11L1471.76 243.982L1478.18 273.016L1474.94 269.634L1471.95 266.522L1460.76 254.855ZM1469.26 236.464C1468.92 235.299 1468.32 234.225 1467.51 233.321L1462.84 237.797C1463.26 238.223 1463.59 238.733 1463.8 239.295C1464.01 239.857 1464.1 240.457 1464.06 241.055C1464.02 241.653 1463.85 242.236 1463.56 242.764C1463.28 243.292 1462.89 243.754 1462.41 244.118C1461.57 245.112 1460.41 245.771 1459.12 245.972C1457.91 245.873 1456.78 245.302 1455.98 244.382L1451.48 248.696C1452.3 249.582 1453.3 250.271 1454.42 250.714C1455.55 251.156 1456.75 251.339 1457.95 251.25C1460.69 250.606 1463.16 249.143 1465.03 247.056C1467.19 245.224 1468.74 242.785 1469.49 240.057C1469.68 238.857 1469.6 237.63 1469.26 236.464Z" fill="url(#paint2_linear_64_494)"/>
<path opacity="0.45" fill-rule="evenodd" clip-rule="evenodd" d="M146.543 469.271L277.282 343.865C300 322.073 336.083 322.824 357.875 345.543L548.158 543.917C569.95 566.636 569.199 602.718 546.48 624.51L415.741 749.917C393.023 771.708 356.94 770.957 335.148 748.239L144.865 549.864C123.073 527.146 123.824 491.063 146.543 469.271ZM151.388 474.323L282.127 348.917C302.056 329.801 333.707 330.46 352.823 350.388L543.106 548.763C562.222 568.691 561.563 600.343 541.635 619.458L410.895 744.865C390.967 763.981 359.315 763.322 340.2 743.393L149.917 545.019C130.801 525.09 131.46 493.439 151.388 474.323ZM331.928 531.01C336.772 536.269 340.076 542.758 341.48 549.769C342.95 556.764 342.22 564.042 339.389 570.605C336.24 578.014 331.587 584.688 325.724 590.206C321.289 594.792 315.921 598.373 309.984 600.708C304.046 603.043 297.677 604.077 291.306 603.741C278.731 602.816 266.943 595.942 254.941 583.43L251.048 579.371C244.337 572.43 239.097 564.204 235.643 555.188C232.826 547.31 232.313 538.791 234.166 530.632C236.385 522.343 240.908 514.853 247.21 509.03C255.33 500.671 266.1 495.39 277.68 494.087C283.191 493.88 288.686 494.798 293.83 496.786C298.974 498.773 303.659 501.788 307.599 505.647L288.661 523.812C286.965 521.773 284.866 520.106 282.495 518.916C280.125 517.726 277.534 517.039 274.885 516.897C269.687 517.438 264.891 519.947 261.482 523.909C259.273 525.759 257.612 528.178 256.679 530.905C255.746 533.631 255.576 536.56 256.189 539.376C258.609 547.112 263.039 554.066 269.027 559.529L274.541 565.278C280.182 571.843 287.202 577.081 295.101 580.62C297.969 581.345 300.981 581.265 303.807 580.388C306.632 579.511 309.16 577.872 311.113 575.651C315.11 572.509 317.706 567.919 318.339 562.875C318.353 560.376 317.856 557.9 316.878 555.6C315.9 553.299 314.462 551.224 312.652 549.5L331.928 531.01ZM320.098 494.307C321.964 504.956 327.226 514.716 335.096 522.128C342.308 530.495 351.892 536.474 362.579 539.271C366.965 540.145 371.501 539.89 375.762 538.529C380.022 537.169 383.867 534.747 386.934 531.493C389.788 528.778 391.949 525.42 393.237 521.698C394.526 517.977 394.904 514.002 394.34 510.104L401.517 515.556L418.088 499.662L337.965 416.132L319.704 433.649L348.249 463.408C344.792 463.068 341.303 463.479 338.019 464.612C334.735 465.744 331.734 467.573 329.222 469.972C325.793 472.946 323.162 476.731 321.569 480.981C319.975 485.231 319.47 489.812 320.098 494.307ZM378.383 512.423C372.296 518.262 364.386 516.109 354.33 505.626L351.425 501.919C343.329 492.802 341.831 485.149 347.58 479.634C349.204 477.798 351.362 476.518 353.752 475.973C356.141 475.428 358.641 475.646 360.9 476.597L382.31 498.917C383.111 501.3 383.164 503.871 382.463 506.285C381.761 508.699 380.337 510.841 378.383 512.423ZM184.225 509.707L186.254 507.761L189.822 511.481L187.793 513.427L192.983 518.838L188.248 523.379L183.383 518.307L175.605 525.767L172.347 523.048L165.217 499.369L169.952 494.827L184.225 509.707ZM175.77 517.817L179.49 514.248L171.705 506.132L175.77 517.817ZM196.62 487.428C196.073 486.086 195.316 484.84 194.377 483.736C192.633 481.893 190.327 480.679 187.82 480.285C185.411 480.399 183.124 481.382 181.384 483.052C179.643 484.722 178.566 486.965 178.351 489.368C178.715 491.867 179.821 494.199 181.526 496.062C182.441 497.221 183.7 498.059 185.122 498.457C186.419 498.821 187.787 498.849 189.097 498.54C188.735 500.061 188.702 501.643 189.001 503.178C189.624 505.18 190.821 506.955 192.442 508.285C194.064 509.615 196.04 510.44 198.125 510.659C200.645 510.366 202.998 509.251 204.82 507.484C205.898 506.768 206.779 505.792 207.381 504.646C207.984 503.501 208.29 502.222 208.27 500.928C208.312 499.625 208.081 498.328 207.592 497.119C207.104 495.911 206.368 494.817 205.434 493.909C204.262 492.73 202.789 491.897 201.175 491.5C199.654 491.138 198.072 491.105 196.537 491.404C197.061 490.136 197.091 488.717 196.62 487.428ZM202.313 502.887C202.186 503.354 201.93 503.775 201.576 504.103C201.183 504.482 200.673 504.716 200.129 504.765C199.585 504.814 199.041 504.675 198.587 504.372C196.369 503.376 194.624 501.557 193.722 499.299C193.597 498.837 193.599 498.349 193.727 497.887C193.855 497.425 194.105 497.007 194.451 496.675C194.797 496.343 195.226 496.111 195.692 496.002C196.159 495.893 196.646 495.911 197.103 496.055C198.403 496.333 199.561 497.061 200.375 498.112C201.255 499.074 201.91 500.22 202.294 501.466C202.433 501.929 202.44 502.421 202.313 502.887ZM187.358 486.573C188.361 487.063 189.25 487.759 189.967 488.615C190.766 489.391 191.42 490.302 191.899 491.307C192.21 492.308 192.196 492.97 191.52 493.619C190.843 494.268 190.181 494.254 189.194 493.902C188.191 493.412 187.302 492.716 186.585 491.859C186.083 491.583 185.648 491.198 185.314 490.733C184.979 490.267 184.753 489.732 184.653 489.168C184.658 488.915 184.614 488.709 184.576 488.533C184.515 488.249 184.471 488.043 184.68 487.843C184.897 487.342 185.288 486.938 185.78 486.704C186.273 486.471 186.834 486.424 187.358 486.573ZM404.177 690.272L401.133 693.192L381.67 672.901L377.854 681.107L375.259 678.402L380.808 666.586L381.146 666.262L404.177 690.272ZM420.072 675.026L423.115 672.107L400.084 648.096L399.746 648.42L394.197 660.236L396.792 662.942L400.609 654.735L420.072 675.026ZM447.802 648.427L432.246 663.349L430.299 661.32L429.996 644.079C429.962 642.076 429.782 640.079 429.457 638.102C429.074 636.856 428.418 635.71 427.538 634.748C426.508 633.621 425.117 632.889 423.604 632.678C422.022 632.693 420.491 633.245 419.263 634.245C418.603 634.813 418.074 635.519 417.714 636.313C417.354 637.107 417.172 637.969 417.179 638.841C417.193 639.783 417.397 640.713 417.777 641.575C418.158 642.437 418.708 643.213 419.395 643.858L416.351 646.778C414.379 644.831 413.245 642.191 413.19 639.421C413.563 636.547 414.904 633.886 416.993 631.877C418.957 630.066 421.396 628.852 424.025 628.378C426.498 628.404 428.859 629.406 430.596 631.166C433.399 634.765 434.727 639.295 434.309 643.837L434.696 657.103L446.87 645.425L447.802 648.427ZM448.941 641.49C449.052 642.145 449.392 642.739 449.9 643.167L449.901 643.168C450.549 643.844 450.873 644.182 451.536 644.196C451.867 644.203 452.121 643.959 452.374 643.716C452.628 643.473 452.882 643.23 453.213 643.236C453.876 643.25 454.227 642.263 454.241 641.601C454.13 640.946 453.79 640.352 453.282 639.924C452.633 639.248 452.633 639.247 451.647 638.896L451.646 638.895C450.659 638.543 450.321 638.868 449.645 639.516C449.217 640.089 448.972 640.777 448.941 641.49ZM465.042 616.306L468.424 613.062L470.694 615.43L467.313 618.673L472.503 624.084L469.459 627.004L464.269 621.593L453.447 631.973L451.825 630.282L446.752 603.331L450.134 600.087L465.042 616.306ZM454.559 626.362L461.998 619.226L450.645 607.389L450.955 608.39L454.559 626.362ZM486.016 611.772L489.059 608.852L466.028 584.842L465.69 585.166L460.141 596.982L462.736 599.687L466.553 591.481L486.016 611.772ZM345.388 659.783L339.571 665.363L319.07 661.522L330.812 673.764L325.706 678.663L302.545 654.517L307.651 649.618L318.875 661.319L316.309 641.314L321.719 636.124L324.053 656.158L345.388 659.783ZM350.9 654.496L345.388 659.783L330.651 627.362L336.907 621.36L368.721 637.401L363.209 642.689L355.936 638.626L347.144 647.06L350.9 654.496ZM339.296 629.199L350.502 635.398L344.212 641.431C340.605 634.242 338.301 629.764 337.299 627.997C337.779 628.317 338.444 628.717 339.296 629.199ZM364.933 633.113L366.793 631.329C365.399 626.774 363.594 622.354 361.401 618.126C359.168 613.888 356.604 609.835 353.732 606.001L367.8 592.507L386.712 612.223L390.094 608.979L400.928 620.274L395.72 625.27L388.973 618.236L373.857 632.735L380.604 639.769L375.768 644.408L364.933 633.113ZM361.715 606.201C366.065 612.368 369.581 619.083 372.17 626.171L381.504 617.218L366.517 601.595L361.715 606.201ZM383.833 586.544L407.815 599.902L412.516 595.393L400.774 570.358C403.457 573.629 405.241 575.489 405.922 576.199L407.706 578.059L418.671 589.49L423.439 584.916L400.278 560.77L393.311 567.452L404.969 591.723L381.543 578.741L374.576 585.423L397.737 609.569L402.303 605.19L391.533 593.962C390.3 592.677 387.734 590.204 383.833 586.544ZM406.263 555.029L410.863 550.617L422.054 562.284L425.038 565.395L428.282 568.777L421.86 539.743L427.981 533.872L451.142 558.018L446.509 562.462L435.383 550.862C433.891 549.307 431.83 546.955 429.2 543.807L435.75 573.042L429.392 579.141L406.263 555.029ZM438.762 523.855L434.163 528.267L457.562 552.119L463.717 546.216L457.167 516.98C459.797 520.128 461.858 522.48 463.35 524.036L474.477 535.635L479.042 531.256L455.881 507.11L449.76 512.982L456.182 542.016L452.938 538.634L449.953 535.522L438.762 523.855ZM447.26 505.464C446.918 504.299 446.319 503.225 445.508 502.321L440.841 506.797C441.263 507.223 441.59 507.733 441.8 508.295C442.009 508.857 442.097 509.457 442.056 510.055C442.015 510.653 441.848 511.236 441.564 511.764C441.28 512.292 440.887 512.754 440.411 513.118C439.575 514.112 438.407 514.771 437.124 514.972C435.908 514.873 434.778 514.302 433.976 513.382L429.478 517.696C430.296 518.582 431.303 519.271 432.424 519.714C433.545 520.156 434.752 520.339 435.954 520.25C438.686 519.606 441.157 518.143 443.034 516.056C445.189 514.224 446.742 511.785 447.489 509.057C447.681 507.857 447.603 506.63 447.26 505.464Z" fill="url(#paint3_linear_64_494)"/>
<g filter="url(#filter0_d_64_494)">
<rect x="1052.02" y="309.06" width="226.95" height="69.9479" rx="14" transform="rotate(-11.7765 1052.02 309.06)" fill="#1455FF"/>
</g>
<path d="M1133.68 323.984C1135.22 323.662 1136.64 323.916 1137.93 324.745C1139.21 325.557 1140.01 326.718 1140.33 328.228C1140.65 329.772 1140.38 331.174 1139.53 332.431C1138.69 333.686 1137.49 334.476 1135.93 334.801L1129.24 336.197L1125.52 318.38L1136.21 316.151L1136.68 318.391L1128.36 320.126L1129.35 324.886L1133.68 323.984ZM1135.47 332.587C1136.35 332.403 1137.04 331.942 1137.52 331.204C1138.02 330.462 1138.18 329.633 1137.98 328.717C1137.8 327.817 1137.33 327.128 1136.57 326.648C1135.83 326.164 1135.02 326.014 1134.14 326.198L1129.81 327.1L1131.14 333.489L1135.47 332.587ZM1147.57 323.876C1148.84 323.611 1149.98 323.773 1150.97 324.364C1151.97 324.933 1152.6 325.821 1152.85 327.025C1153.1 328.23 1152.88 329.303 1152.19 330.243C1151.52 331.163 1150.54 331.756 1149.27 332.021L1143.9 333.141L1141.25 320.414L1143.46 319.953L1144.41 324.534L1147.57 323.876ZM1152.7 318.027L1154.91 317.565L1157.57 330.291L1155.35 330.753L1152.7 318.027ZM1148.84 329.959C1149.47 329.829 1149.96 329.541 1150.31 329.096C1150.67 328.631 1150.79 328.093 1150.66 327.482C1150.53 326.871 1150.21 326.425 1149.69 326.143C1149.19 325.859 1148.62 325.782 1148 325.912L1144.84 326.57L1145.68 330.617L1148.84 329.959ZM1167 328.67C1165.08 329.07 1163.36 328.766 1161.82 327.759C1160.28 326.734 1159.31 325.272 1158.91 323.371C1158.51 321.471 1158.82 319.752 1159.83 318.214C1160.83 316.659 1162.29 315.682 1164.21 315.282C1165.47 315.02 1166.66 315.09 1167.79 315.492C1168.91 315.878 1169.83 316.528 1170.53 317.444L1168.89 318.9C1168.43 318.288 1167.82 317.85 1167.05 317.584C1166.31 317.315 1165.51 317.268 1164.66 317.445C1163.39 317.711 1162.41 318.366 1161.72 319.412C1161.06 320.454 1160.86 321.62 1161.13 322.91C1161.39 324.182 1162.04 325.163 1163.07 325.852C1164.11 326.537 1165.27 326.746 1166.54 326.481C1167.39 326.304 1168.12 325.95 1168.71 325.418C1169.31 324.869 1169.71 324.219 1169.93 323.466L1172.04 324.167C1171.7 325.282 1171.09 326.25 1170.2 327.074C1169.31 327.88 1168.24 328.412 1167 328.67ZM1181.46 312.031L1181.91 314.169L1177.58 315.071L1179.79 325.659L1177.57 326.121L1175.37 315.532L1171.01 316.44L1170.57 314.302L1181.46 312.031ZM1190.36 309.831C1192.14 309.459 1193.79 309.796 1195.32 310.841C1196.85 311.869 1197.8 313.316 1198.19 315.183C1198.58 317.049 1198.28 318.767 1197.3 320.335C1196.31 321.886 1194.93 322.848 1193.15 323.219C1191.04 323.658 1189.27 323.152 1187.81 321.702L1189.33 328.982L1187.12 329.443L1183.4 311.626L1185.62 311.165L1186.07 313.354C1186.83 311.444 1188.25 310.27 1190.36 309.831ZM1192.42 321.139C1193.7 320.874 1194.67 320.219 1195.36 319.173C1196.04 318.11 1196.25 316.934 1195.98 315.644C1195.71 314.355 1195.05 313.367 1194.01 312.682C1192.96 311.98 1191.8 311.762 1190.52 312.027C1189.23 312.296 1188.25 312.962 1187.57 314.025C1186.88 315.071 1186.67 316.238 1186.94 317.528C1187.21 318.817 1187.87 319.813 1188.92 320.515C1189.97 321.2 1191.13 321.408 1192.42 321.139ZM1212.57 317.152C1211.53 318.714 1210.08 319.69 1208.21 320.079C1206.35 320.468 1204.62 320.154 1203.05 319.137C1201.49 318.116 1200.52 316.664 1200.12 314.78C1199.73 312.897 1200.04 311.176 1201.06 309.617C1202.1 308.055 1203.55 307.08 1205.42 306.691C1207.29 306.302 1209.01 306.616 1210.58 307.633C1212.16 308.65 1213.14 310.101 1213.54 311.984C1213.93 313.868 1213.61 315.59 1212.57 317.152ZM1207.76 317.915C1209.03 317.65 1210.01 316.995 1210.7 315.949C1211.38 314.903 1211.59 313.735 1211.32 312.446C1211.05 311.156 1210.4 310.169 1209.35 309.484C1208.3 308.799 1207.14 308.589 1205.87 308.854C1204.62 309.116 1203.65 309.77 1202.96 310.816C1202.28 311.861 1202.07 313.029 1202.34 314.319C1202.61 315.608 1203.26 316.596 1204.31 317.281C1205.35 317.966 1206.51 318.177 1207.76 317.915Z" fill="white"/>
<g filter="url(#filter1_b_64_494)">
<rect x="939.055" y="333.003" width="213.556" height="69.95" rx="14" transform="rotate(5.98408 939.055 333.003)" fill="#353535" fill-opacity="0.09"/>
</g>
<path d="M1011.09 365.403L1014.09 365.718L1007.07 378.576C1005.35 381.724 1002.95 383.041 999.885 382.528L1000.18 379.761C1001.18 379.971 1002.02 379.902 1002.68 379.553C1003.36 379.207 1003.94 378.57 1004.42 377.645L999.74 364.213L1002.74 364.528L1006.14 374.53L1011.09 365.403ZM1023.66 382.354L1025.39 382.536L1024.75 388.639L1022.01 388.351L1022.38 384.886L1013.51 383.956L1013.14 387.421L1010.4 387.134L1011.04 381.031L1012.62 381.197C1013.53 380.159 1014.09 378.641 1014.3 376.641L1014.89 371.03L1024.74 372.063L1023.66 382.354ZM1015.7 381.519L1020.92 382.067L1021.73 374.335L1017.36 373.877L1017.04 376.928C1016.85 378.773 1016.4 380.303 1015.7 381.519ZM1032.95 386.334C1031.05 386.136 1029.51 385.311 1028.32 383.862C1027.13 382.413 1026.63 380.731 1026.83 378.818C1027.03 376.904 1027.87 375.362 1029.33 374.191C1030.8 373.02 1032.48 372.534 1034.37 372.733C1036.29 372.934 1037.83 373.758 1039 375.205C1040.19 376.654 1040.69 378.336 1040.49 380.249C1040.29 382.163 1039.45 383.705 1037.99 384.876C1036.54 386.049 1034.86 386.535 1032.95 386.334ZM1030.48 382.155C1031.18 383.012 1032.09 383.5 1033.23 383.619C1034.37 383.739 1035.37 383.451 1036.22 382.757C1037.08 382.062 1037.57 381.129 1037.69 379.957C1037.82 378.784 1037.53 377.77 1036.84 376.913C1036.14 376.055 1035.23 375.567 1034.09 375.448C1032.95 375.329 1031.95 375.616 1031.1 376.311C1030.24 377.005 1029.75 377.938 1029.63 379.111C1029.5 380.283 1029.79 381.298 1030.48 382.155ZM1048.3 387.944C1046.32 387.736 1044.76 386.928 1043.64 385.521C1042.53 384.098 1042.08 382.386 1042.29 380.386C1042.52 378.197 1043.03 376.542 1043.81 375.421C1044.59 374.283 1046.03 373.328 1048.13 372.555C1048.48 372.434 1048.98 372.26 1049.65 372.034C1050.34 371.81 1050.81 371.65 1051.06 371.555C1051.32 371.442 1051.64 371.284 1052.03 371.081C1052.42 370.86 1052.71 370.621 1052.91 370.363C1053.12 370.088 1053.29 369.758 1053.44 369.372L1055.57 370.929C1055.46 371.301 1055.31 371.643 1055.13 371.954C1054.94 372.248 1054.68 372.518 1054.36 372.763C1054.04 373.008 1053.76 373.205 1053.51 373.354C1053.29 373.505 1052.91 373.675 1052.39 373.864C1051.86 374.052 1051.48 374.186 1051.22 374.264C1050.99 374.344 1050.54 374.48 1049.87 374.672C1048.69 375.001 1047.8 375.378 1047.22 375.805C1046.65 376.216 1046.23 376.764 1045.95 377.449C1047.11 376.386 1048.57 375.947 1050.35 376.133C1051.86 376.292 1053.13 376.973 1054.13 378.177C1055.16 379.382 1055.58 380.847 1055.4 382.571C1055.21 384.329 1054.46 385.714 1053.13 386.725C1051.82 387.738 1050.21 388.144 1048.3 387.944ZM1048.55 385.329C1049.63 385.443 1050.55 385.217 1051.31 384.652C1052.07 384.069 1052.5 383.278 1052.6 382.278C1052.71 381.261 1052.45 380.389 1051.83 379.661C1051.23 378.936 1050.39 378.516 1049.3 378.402C1048.33 378.301 1047.43 378.52 1046.59 379.059C1045.75 379.581 1045.28 380.351 1045.17 381.368C1045.06 382.402 1045.34 383.293 1045.99 384.042C1046.64 384.79 1047.5 385.219 1048.55 385.329ZM1067.08 376.501L1069.87 376.794L1068.51 389.723L1065.72 389.43L1066.26 384.285L1060.34 383.664L1059.8 388.81L1057.01 388.517L1058.36 375.588L1061.15 375.881L1060.62 381.026L1066.54 381.647L1067.08 376.501ZM1077.82 391.039C1075.92 390.84 1074.38 390.016 1073.19 388.567C1072 387.117 1071.51 385.436 1071.71 383.523C1071.91 381.609 1072.74 380.067 1074.21 378.896C1075.67 377.725 1077.35 377.239 1079.25 377.438C1081.16 377.638 1082.7 378.462 1083.88 379.91C1085.07 381.359 1085.56 383.04 1085.36 384.954C1085.16 386.867 1084.33 388.41 1082.86 389.581C1081.42 390.753 1079.73 391.24 1077.82 391.039ZM1075.36 386.859C1076.05 387.716 1076.97 388.205 1078.11 388.324C1079.24 388.443 1080.24 388.156 1081.1 387.461C1081.95 386.767 1082.44 385.833 1082.57 384.661C1082.69 383.489 1082.41 382.474 1081.71 381.617C1081.02 380.76 1080.1 380.272 1078.96 380.153C1077.82 380.033 1076.83 380.321 1075.97 381.015C1075.11 381.71 1074.62 382.643 1074.5 383.815C1074.38 384.988 1074.66 386.002 1075.36 386.859Z" fill="white"/>
<g filter="url(#filter2_d_64_494)">
<rect x="143.288" y="285.937" width="226.95" height="69.9479" rx="14" transform="rotate(5.27932 143.288 285.937)" fill="#1455FF"/>
</g>
<path d="M186.706 313.837C189.433 314.089 191.593 315.202 193.186 317.177C194.78 319.135 195.455 321.443 195.209 324.101C194.965 326.742 193.879 328.887 191.951 330.536C190.023 332.186 187.695 332.885 184.968 332.633C183.294 332.478 181.795 331.939 180.47 331.016C179.147 330.075 178.177 328.898 177.559 327.483L179.766 326.486C180.176 327.516 180.87 328.381 181.85 329.081C182.831 329.763 183.943 330.162 185.186 330.277C187.067 330.451 188.681 330.043 190.025 329.053C191.37 328.063 192.244 326.708 192.647 324.987L183.326 324.125L183.535 321.873L192.855 322.734C192.774 320.969 192.164 319.476 191.023 318.257C189.883 317.037 188.372 316.341 186.49 316.167C185.248 316.052 184.08 316.249 182.989 316.757C181.916 317.25 181.075 317.973 180.465 318.926L178.48 317.515C179.364 316.239 180.542 315.269 182.013 314.604C183.484 313.939 185.049 313.684 186.706 313.837ZM208.025 334.424L205.228 334.166L199.893 327.484L199.326 333.62L197.073 333.412L198.27 320.467L200.522 320.675L199.993 326.397L206.114 321.192L209.014 321.46L202.247 327.154L208.025 334.424ZM220.007 333.887C218.557 335.075 216.882 335.582 214.984 335.407C213.085 335.231 211.532 334.426 210.324 332.992C209.134 331.559 208.627 329.884 208.804 327.968C208.981 326.053 209.786 324.499 211.219 323.309C212.669 322.12 214.344 321.613 216.242 321.789C218.141 321.964 219.694 322.769 220.902 324.204C222.11 325.638 222.625 327.314 222.448 329.229C222.271 331.145 221.457 332.698 220.007 333.887ZM215.187 333.206C216.482 333.326 217.61 332.986 218.571 332.187C219.533 331.388 220.074 330.333 220.196 329.021C220.317 327.709 219.978 326.573 219.179 325.611C218.38 324.65 217.334 324.109 216.039 323.989C214.762 323.871 213.642 324.212 212.681 325.011C211.719 325.81 211.178 326.865 211.057 328.177C210.935 329.488 211.274 330.625 212.073 331.587C212.872 332.548 213.91 333.088 215.187 333.206ZM234.659 323.83L236.912 324.038L235.715 336.983L233.463 336.775L233.963 331.364L227.258 330.744L226.758 336.155L224.505 335.947L225.702 323.002L227.954 323.211L227.456 328.596L234.162 329.215L234.659 323.83ZM250.22 336.679C248.77 337.868 247.095 338.375 245.197 338.199C243.298 338.024 241.745 337.219 240.537 335.784C239.347 334.351 238.84 332.677 239.017 330.761C239.194 328.845 239.999 327.292 241.432 326.101C242.883 324.912 244.557 324.406 246.455 324.581C248.354 324.757 249.907 325.562 251.115 326.996C252.323 328.431 252.838 330.106 252.661 332.022C252.484 333.938 251.67 335.49 250.22 336.679ZM245.4 335.998C246.695 336.118 247.823 335.778 248.784 334.98C249.746 334.181 250.287 333.125 250.409 331.814C250.53 330.502 250.191 329.365 249.392 328.404C248.593 327.442 247.547 326.901 246.252 326.782C244.975 326.664 243.855 327.004 242.894 327.803C241.932 328.602 241.391 329.657 241.27 330.969C241.148 332.281 241.487 333.417 242.286 334.379C243.085 335.341 244.123 335.88 245.4 335.998ZM268.859 326.991L267.663 339.936L265.462 339.733L266.331 330.335L261.602 336.582L261.317 336.556L257.813 329.547L256.945 338.945L254.718 338.74L255.915 325.795L258.322 326.017L261.782 332.943L266.452 326.769L268.859 326.991ZM281.696 328.178L283.508 328.345L282.312 341.29L280.085 341.084L280.925 331.997L272.914 340.421L271.101 340.254L272.298 327.309L274.524 327.515L273.685 336.602L281.696 328.178ZM295.092 329.416L297.344 329.624L296.148 342.569L293.896 342.36L294.326 337.7C293.249 338.053 292.063 338.17 290.769 338.05C289.112 337.897 287.862 337.39 287.019 336.529C286.195 335.652 285.854 334.445 285.996 332.909L286.393 328.612L288.645 328.82L288.26 332.988C288.171 333.955 288.366 334.669 288.845 335.131C289.342 335.595 290.1 335.874 291.118 335.968C292.343 336.081 293.477 335.959 294.52 335.603L295.092 329.416ZM309.724 330.768L311.977 330.976L310.78 343.921L308.528 343.713L309.028 338.302L302.322 337.682L301.822 343.093L299.57 342.885L300.766 329.94L303.019 330.148L302.521 335.533L309.227 336.153L309.724 330.768ZM325.285 343.617C323.835 344.805 322.16 345.312 320.262 345.137C318.363 344.961 316.81 344.156 315.602 342.722C314.412 341.289 313.905 339.614 314.082 337.698C314.259 335.783 315.064 334.229 316.497 333.039C317.947 331.85 319.622 331.343 321.52 331.519C323.419 331.694 324.972 332.499 326.18 333.934C327.388 335.368 327.903 337.044 327.726 338.959C327.549 340.875 326.735 342.428 325.285 343.617ZM320.465 342.936C321.76 343.056 322.888 342.716 323.849 341.917C324.811 341.118 325.352 340.063 325.474 338.751C325.595 337.44 325.256 336.303 324.457 335.341C323.658 334.38 322.611 333.839 321.317 333.719C320.04 333.601 318.92 333.942 317.959 334.741C316.997 335.54 316.456 336.595 316.334 337.907C316.213 339.218 316.552 340.355 317.351 341.317C318.15 342.278 319.188 342.818 320.465 342.936Z" fill="white"/>
<g filter="url(#filter3_b_64_494)">
<rect x="292.727" y="364.162" width="213.556" height="69.95" rx="14" transform="rotate(-8.87079 292.727 364.162)" fill="#353535" fill-opacity="0.09"/>
</g>
<path d="M380.885 375.416L381.326 378.242L376.265 379.032L378.631 394.188L375.676 394.649L373.311 379.493L368.225 380.286L367.784 377.461L380.885 375.416ZM389.503 392.834C387.619 393.127 385.916 392.727 384.394 391.631C382.873 390.535 381.963 389.037 381.667 387.136C381.37 385.235 381.779 383.53 382.895 382.023C384.011 380.516 385.51 379.615 387.394 379.321C389.295 379.024 390.998 379.425 392.503 380.524C394.025 381.62 394.934 383.118 395.23 385.019C395.527 386.92 395.118 388.624 394.002 390.131C392.904 391.636 391.404 392.537 389.503 392.834ZM386.05 389.425C386.941 390.076 387.952 390.313 389.082 390.136C390.212 389.96 391.103 389.426 391.753 388.535C392.403 387.644 392.638 386.616 392.456 385.452C392.274 384.287 391.738 383.38 390.847 382.729C389.956 382.079 388.945 381.842 387.815 382.018C386.685 382.195 385.794 382.728 385.144 383.619C384.494 384.51 384.259 385.538 384.441 386.703C384.623 387.867 385.159 388.775 386.05 389.425ZM404.296 377.026L407.07 376.593L409.074 389.437L406.3 389.87L405.622 385.529C404.654 386.066 403.604 386.423 402.474 386.599C400.881 386.848 399.561 386.65 398.513 386.007C397.465 385.363 396.823 384.279 396.585 382.755L395.895 378.337L398.67 377.904L399.319 382.065C399.56 383.607 400.596 384.234 402.429 383.948C403.508 383.78 404.436 383.433 405.214 382.908L404.296 377.026ZM418.966 374.736L421.741 374.303L423.745 387.148L420.971 387.581L420.173 382.469L414.29 383.387L415.088 388.499L412.313 388.932L410.309 376.087L413.083 375.654L413.881 380.766L419.764 379.848L418.966 374.736ZM433.079 386.033C431.195 386.327 429.492 385.926 427.97 384.831C426.449 383.735 425.539 382.236 425.243 380.335C424.946 378.434 425.356 376.73 426.471 375.223C427.587 373.715 429.086 372.815 430.97 372.521C432.871 372.224 434.574 372.625 436.079 373.724C437.601 374.819 438.51 376.318 438.807 378.219C439.103 380.12 438.694 381.824 437.578 383.331C436.48 384.836 434.98 385.737 433.079 386.033ZM429.626 382.625C430.517 383.275 431.528 383.512 432.658 383.336C433.788 383.16 434.679 382.626 435.329 381.735C435.98 380.844 436.214 379.816 436.032 378.652C435.85 377.487 435.314 376.58 434.423 375.929C433.532 375.279 432.522 375.042 431.391 375.218C430.261 375.395 429.371 375.928 428.72 376.819C428.07 377.71 427.835 378.738 428.017 379.902C428.199 381.067 428.735 381.974 429.626 382.625Z" fill="white"/>
<defs>
<filter id="filter0_d_64_494" x="967.58" y="182.301" width="405.329" height="283.675" filterUnits="userSpaceOnUse" color-interpolation-filters="sRGB">
<feFlood flood-opacity="0" result="BackgroundImageFix"/>
<feColorMatrix in="SourceAlpha" type="matrix" values="0 0 0 0 0 0 0 0 0 0 0 0 0 0 0 0 0 0 127 0" result="hardAlpha"/>
<feOffset dy="4"/>
<feGaussianBlur stdDeviation="43.5"/>
<feComposite in2="hardAlpha" operator="out"/>
<feColorMatrix type="matrix" values="0 0 0 0 0.0784314 0 0 0 0 0.333333 0 0 0 0 1 0 0 0 0.39 0"/>
<feBlend mode="normal" in2="BackgroundImageFix" result="effect1_dropShadow_64_494"/>
<feBlend mode="normal" in="SourceGraphic" in2="effect1_dropShadow_64_494" result="shape"/>
</filter>
<filter id="filter1_b_64_494" x="838.144" y="239.385" width="406.92" height="279.068" filterUnits="userSpaceOnUse" color-interpolation-filters="sRGB">
<feFlood flood-opacity="0" result="BackgroundImageFix"/>
<feGaussianBlur in="BackgroundImage" stdDeviation="47.5"/>
<feComposite in2="SourceAlpha" operator="in" result="effect1_backgroundBlur_64_494"/>
<feBlend mode="normal" in="SourceGraphic" in2="effect1_backgroundBlur_64_494" result="shape"/>
</filter>
<filter id="filter2_d_64_494" x="51.0801" y="204.165" width="403.968" height="262.077" filterUnits="userSpaceOnUse" color-interpolation-filters="sRGB">
<feFlood flood-opacity="0" result="BackgroundImageFix"/>
<feColorMatrix in="SourceAlpha" type="matrix" values="0 0 0 0 0 0 0 0 0 0 0 0 0 0 0 0 0 0 127 0" result="hardAlpha"/>
<feOffset dy="4"/>
<feGaussianBlur stdDeviation="43.5"/>
<feComposite in2="hardAlpha" operator="out"/>
<feColorMatrix type="matrix" values="0 0 0 0 0.0784314 0 0 0 0 0.333333 0 0 0 0 1 0 0 0 0.39 0"/>
<feBlend mode="normal" in2="BackgroundImageFix" result="effect1_dropShadow_64_494"/>
<feBlend mode="normal" in="SourceGraphic" in2="effect1_dropShadow_64_494" result="shape"/>
</filter>
<filter id="filter3_b_64_494" x="199.716" y="238.219" width="407.809" height="288.066" filterUnits="userSpaceOnUse" color-interpolation-filters="sRGB">
<feFlood flood-opacity="0" result="BackgroundImageFix"/>
<feGaussianBlur in="BackgroundImage" stdDeviation="47.5"/>
<feComposite in2="SourceAlpha" operator="in" result="effect1_backgroundBlur_64_494"/>
<feBlend mode="normal" in="SourceGraphic" in2="effect1_backgroundBlur_64_494" result="shape"/>
</filter>
<linearGradient id="paint0_linear_64_494" x1="-212" y1="368.5" x2="270.682" y2="166.241" gradientUnits="userSpaceOnUse">
<stop stop-color="white"/>
<stop offset="1" stop-color="white" stop-opacity="0"/>
</linearGradient>
<linearGradient id="paint1_linear_64_494" x1="1199.85" y1="817.726" x2="1044.47" y2="275.892" gradientUnits="userSpaceOnUse">
<stop stop-color="white"/>
<stop offset="1" stop-color="white" stop-opacity="0"/>
</linearGradient>
<linearGradient id="paint2_linear_64_494" x1="1597.3" y1="429.305" x2="1069.3" y2="193.305" gradientUnits="userSpaceOnUse">
<stop stop-color="white"/>
<stop offset="1" stop-color="white" stop-opacity="0"/>
</linearGradient>
<linearGradient id="paint3_linear_64_494" x1="267.5" y1="779" x2="308.5" y2="364.5" gradientUnits="userSpaceOnUse">
<stop stop-color="white"/>
<stop offset="1" stop-color="white" stop-opacity="0"/>
</linearGradient>
</defs>
</svg>
