<svg width="120" height="28" viewBox="0 0 120 28" fill="none" xmlns="http://www.w3.org/2000/svg">
<path d="M12.8977 27.2927C9.20922 27.2927 6.13149 26.0473 3.66452 23.5563C1.22151 21.0415 0 17.9518 0 14.2873C0 10.6467 1.23348 7.56896 3.70045 5.05409C6.16742 2.53922 9.30502 1.28178 13.1133 1.28178C15.2928 1.28178 17.1251 1.64105 18.61 2.35958C20.095 3.05417 21.5081 4.06011 22.8494 5.37743L19.5441 9.18566C18.4663 8.20366 17.4484 7.4971 16.4904 7.06598C15.5563 6.61091 14.4186 6.38337 13.0773 6.38337C10.9696 6.38337 9.22119 7.14981 7.83203 8.68268C6.46681 10.1916 5.7842 12.0598 5.7842 14.2873C5.7842 16.4908 6.46681 18.3589 7.83203 19.8918C9.22119 21.4247 10.9696 22.1911 13.0773 22.1911C14.4186 22.1911 15.5802 21.9516 16.5622 21.4726C17.5442 20.9936 18.5861 20.2511 19.6878 19.2451L23.2087 23.0174C21.8434 24.4785 20.3585 25.5563 18.7537 26.2509C17.173 26.9454 15.221 27.2927 12.8977 27.2927Z" fill="white"/>
<path d="M33.4579 27.2209C31.3981 27.2209 29.7934 26.5862 28.6437 25.3168C27.494 24.0473 26.9192 22.2989 26.9192 20.0715V7.60488H32.3801V18.347C32.3801 19.6164 32.6675 20.5864 33.2423 21.257C33.8171 21.9277 34.6315 22.263 35.6853 22.263C36.7392 22.263 37.5655 21.9277 38.1643 21.257C38.787 20.5864 39.0984 19.6164 39.0984 18.347V7.60488H44.5592V26.8616H39.0984V24.1312C37.4936 26.191 35.6135 27.2209 33.4579 27.2209Z" fill="white"/>
<path d="M66.9433 27.3646L64.0332 24.4186C61.7578 26.2868 59.3028 27.2209 56.6682 27.2209C54.2013 27.2209 52.1774 26.5622 50.5966 25.2449C49.0158 23.9036 48.2254 22.1193 48.2254 19.8918C48.2254 16.7782 49.8541 14.4789 53.1115 12.9939C51.9379 11.3413 51.3511 9.64073 51.3511 7.8923C51.3511 6.07201 52.0337 4.51519 53.3989 3.22182C54.7881 1.92846 56.6443 1.28178 58.9675 1.28178C61.0752 1.28178 62.7758 1.89254 64.0691 3.11404C65.3864 4.33555 66.0451 5.85645 66.0451 7.67674C66.0451 10.6946 64.2847 12.8861 60.7639 14.2513L64.105 17.5925C64.8954 16.3471 65.7098 14.91 66.5481 13.2813L70.6078 15.5088C69.3623 17.7602 68.2606 19.5326 67.3025 20.8259L71.003 24.5264L66.9433 27.3646ZM57.8897 11.3413C59.0394 10.9101 59.8777 10.4311 60.4046 9.90419C60.9555 9.37727 61.2309 8.71861 61.2309 7.92823C61.2309 7.20969 61.0154 6.64684 60.5842 6.23967C60.1531 5.80855 59.5783 5.59299 58.8597 5.59299C58.1173 5.59299 57.5185 5.8325 57.0634 6.31152C56.6323 6.79054 56.4167 7.42525 56.4167 8.21564C56.4167 9.17368 56.9077 10.2156 57.8897 11.3413ZM57.3149 22.6941C58.5125 22.6941 59.722 22.2151 60.9435 21.257L56.1293 16.371C54.5725 17.1853 53.7941 18.311 53.7941 19.7481C53.7941 20.6343 54.1174 21.3528 54.7641 21.9037C55.4347 22.4306 56.285 22.6941 57.3149 22.6941Z" fill="white"/>
<path d="M86.8211 27.2927C83.1326 27.2927 80.0549 26.0473 77.5879 23.5563C75.1449 21.0415 73.9234 17.9518 73.9234 14.2873C73.9234 10.6467 75.1569 7.56896 77.6239 5.05409C80.0908 2.53922 83.2284 1.28178 87.0367 1.28178C89.2162 1.28178 91.0485 1.64105 92.5335 2.35958C94.0184 3.05417 95.4316 4.06011 96.7728 5.37743L93.4676 9.18566C92.3898 8.20366 91.3718 7.4971 90.4138 7.06598C89.4797 6.61091 88.342 6.38337 87.0008 6.38337C84.8931 6.38337 83.1446 7.14981 81.7555 8.68268C80.3902 10.1916 79.7076 12.0598 79.7076 14.2873C79.7076 16.4908 80.3902 18.3589 81.7555 19.8918C83.1446 21.4247 84.8931 22.1911 87.0008 22.1911C88.342 22.1911 89.5036 21.9516 90.4856 21.4726C91.4676 20.9936 92.5095 20.2511 93.6113 19.2451L97.1321 23.0174C95.7669 24.4785 94.2819 25.5563 92.6772 26.2509C91.0964 26.9454 89.1444 27.2927 86.8211 27.2927Z" fill="white"/>
<path d="M108.539 27.2209C106.144 27.2209 104.084 26.3227 102.36 24.5264C100.635 22.73 99.7733 20.287 99.7733 17.1973C99.7733 14.1316 100.624 11.7125 102.324 9.94012C104.049 8.14379 106.12 7.24562 108.539 7.24562C110.934 7.24562 112.934 8.20366 114.539 10.1198V0.635101H120V26.8616H114.539V24.0952C113.006 26.179 111.006 27.2209 108.539 27.2209ZM106.599 21.1133C107.509 22.0953 108.623 22.5863 109.941 22.5863C111.258 22.5863 112.36 22.0953 113.246 21.1133C114.156 20.1074 114.611 18.802 114.611 17.1973C114.611 15.6405 114.156 14.3711 113.246 13.3891C112.36 12.3831 111.258 11.8802 109.941 11.8802C108.623 11.8802 107.509 12.3831 106.599 13.3891C105.689 14.3711 105.234 15.6644 105.234 17.2692C105.234 18.826 105.689 20.1074 106.599 21.1133Z" fill="white"/>
<path d="M66.9433 27.3646L64.0332 24.4186C61.7578 26.2868 59.3028 27.2209 56.6682 27.2209C54.2013 27.2209 52.1774 26.5622 50.5966 25.2449C49.0158 23.9036 48.2254 22.1193 48.2254 19.8918C48.2254 16.7782 49.8541 14.4789 53.1115 12.9939C51.9379 11.3413 51.3511 9.64073 51.3511 7.8923C51.3511 6.07201 52.0337 4.51519 53.3989 3.22182C54.7881 1.92846 56.6443 1.28178 58.9675 1.28178C61.0752 1.28178 62.7758 1.89254 64.0691 3.11404C65.3864 4.33555 66.0451 5.85645 66.0451 7.67674C66.0451 10.6946 64.2847 12.8861 60.7639 14.2513L64.105 17.5925C64.8954 16.3471 65.7098 14.91 66.5481 13.2813L70.6078 15.5088C69.3623 17.7602 68.2606 19.5326 67.3025 20.8259L71.003 24.5264L66.9433 27.3646ZM57.8897 11.3413C59.0394 10.9101 59.8777 10.4311 60.4046 9.90419C60.9555 9.37727 61.2309 8.71861 61.2309 7.92823C61.2309 7.20969 61.0154 6.64684 60.5842 6.23967C60.1531 5.80855 59.5783 5.59299 58.8597 5.59299C58.1173 5.59299 57.5185 5.8325 57.0634 6.31152C56.6323 6.79054 56.4167 7.42525 56.4167 8.21564C56.4167 9.17368 56.9077 10.2156 57.8897 11.3413ZM57.3149 22.6941C58.5125 22.6941 59.722 22.2151 60.9435 21.257L56.1293 16.371C54.5725 17.1853 53.7941 18.311 53.7941 19.7481C53.7941 20.6343 54.1174 21.3528 54.7641 21.9037C55.4347 22.4306 56.285 22.6941 57.3149 22.6941Z" fill="white"/>
<path d="M66.9432 27.3649L64.0331 24.4189C61.7577 26.2871 59.3027 27.2212 56.6681 27.2212C54.2012 27.2212 52.1773 26.5625 50.5965 25.2452C49.0157 23.9039 48.2253 22.1196 48.2253 19.8921C48.2253 16.7785 49.854 14.4792 53.1114 12.9942C51.9378 11.3416 51.351 9.64104 51.351 7.89261C51.351 6.07232 52.0336 4.51549 53.3988 3.22213C54.788 1.92877 56.6442 1.28209 58.9674 1.28209C61.0751 1.28209 62.7757 1.89284 64.069 3.11435C65.3863 4.33586 66.045 5.85676 66.045 7.67704C66.045 10.6949 64.2846 12.8864 60.7638 14.2516L64.1049 17.5928C64.8953 16.3474 65.7097 14.9103 66.548 13.2816L70.6077 15.5091C69.3622 17.7605 68.2605 19.5329 67.3024 20.8262L71.0029 24.5267L66.9432 27.3649ZM57.8896 11.3416C59.0393 10.9104 59.8776 10.4314 60.4045 9.9045C60.9554 9.37758 61.2308 8.71892 61.2308 7.92853C61.2308 7.21 61.0153 6.64714 60.5841 6.23998C60.153 5.80886 59.5782 5.5933 58.8597 5.5933C58.1172 5.5933 57.5184 5.83281 57.0633 6.31183C56.6322 6.79085 56.4166 7.42556 56.4166 8.21594C56.4166 9.17399 56.9076 10.2159 57.8896 11.3416ZM57.3148 22.6944C58.5124 22.6944 59.7219 22.2154 60.9434 21.2573L56.1292 16.3713C54.5724 17.1856 53.794 18.3114 53.794 19.7484C53.794 20.6346 54.1173 21.3531 54.764 21.904C55.4346 22.4309 56.2849 22.6944 57.3148 22.6944Z" fill="url(#paint0_linear_43_181)"/>
<path d="M66.9432 27.3649L64.0331 24.4189C61.7577 26.2871 59.3027 27.2212 56.6681 27.2212C54.2012 27.2212 52.1773 26.5625 50.5965 25.2452C49.0157 23.9039 48.2253 22.1196 48.2253 19.8921C48.2253 16.7785 49.854 14.4792 53.1114 12.9942C51.9378 11.3416 51.351 9.64104 51.351 7.89261C51.351 6.07232 52.0336 4.51549 53.3988 3.22213C54.788 1.92877 56.6442 1.28209 58.9674 1.28209C61.0751 1.28209 62.7757 1.89284 64.069 3.11435C65.3863 4.33586 66.045 5.85676 66.045 7.67704C66.045 10.6949 64.2846 12.8864 60.7638 14.2516L64.1049 17.5928C64.8953 16.3474 65.7097 14.9103 66.548 13.2816L70.6077 15.5091C69.3622 17.7605 68.2605 19.5329 67.3024 20.8262L71.0029 24.5267L66.9432 27.3649ZM57.8896 11.3416C59.0393 10.9104 59.8776 10.4314 60.4045 9.9045C60.9554 9.37758 61.2308 8.71892 61.2308 7.92853C61.2308 7.21 61.0153 6.64714 60.5841 6.23998C60.153 5.80886 59.5782 5.5933 58.8597 5.5933C58.1172 5.5933 57.5184 5.83281 57.0633 6.31183C56.6322 6.79085 56.4166 7.42556 56.4166 8.21594C56.4166 9.17399 56.9076 10.2159 57.8896 11.3416ZM57.3148 22.6944C58.5124 22.6944 59.7219 22.2154 60.9434 21.2573L56.1292 16.3713C54.5724 17.1856 53.794 18.3114 53.794 19.7484C53.794 20.6346 54.1173 21.3531 54.764 21.904C55.4346 22.4309 56.2849 22.6944 57.3148 22.6944Z" fill="url(#paint1_linear_43_181)"/>
<defs>
<linearGradient id="paint0_linear_43_181" x1="51" y1="0.999999" x2="70.8925" y2="4.43082" gradientUnits="userSpaceOnUse">
<stop stop-color="#1455FF"/>
<stop offset="1" stop-color="#00B2FF"/>
</linearGradient>
<linearGradient id="paint1_linear_43_181" x1="51" y1="0.999999" x2="70.8925" y2="4.43082" gradientUnits="userSpaceOnUse">
<stop stop-color="#1455FF"/>
<stop offset="1" stop-color="#00B2FF"/>
</linearGradient>
</defs>
</svg>
