<svg width="100" height="120" viewBox="0 0 100 120" fill="none" xmlns="http://www.w3.org/2000/svg">
<path d="M27.9919 88.855C19.9868 88.855 13.3072 86.152 7.9531 80.746C2.65103 75.288 0 68.5824 0 60.6293C0 52.7281 2.67703 46.0485 8.03109 40.5905C13.3852 35.1325 20.1947 32.4035 28.4597 32.4035C33.19 32.4035 37.1665 33.1832 40.3894 34.7426C43.6122 36.2501 46.6791 38.4333 49.59 41.2923L42.4166 49.5573C40.0775 47.426 37.8683 45.8926 35.789 44.9569C33.7618 43.9693 31.2927 43.4755 28.3817 43.4755C23.8074 43.4755 20.0128 45.1389 16.9978 48.4657C14.0349 51.7405 12.5534 55.795 12.5534 60.6293C12.5534 65.4115 14.0349 69.4661 16.9978 72.7929C20.0128 76.1197 23.8074 77.7831 28.3817 77.7831C31.2927 77.7831 33.8138 77.2632 35.945 76.2236C38.0762 75.184 40.3374 73.5726 42.7285 71.3894L50.3698 79.5764C47.4068 82.7472 44.184 85.0864 40.7013 86.5939C37.2705 88.1013 33.034 88.855 27.9919 88.855Z" fill="url(#paint0_linear_43_186)"/>
<path d="M75.127 88.6991C69.9289 88.6991 65.4585 86.7498 61.7159 82.8512C57.9732 78.9526 56.1019 73.6506 56.1019 66.945C56.1019 60.2914 57.9472 55.0413 61.6379 51.1947C65.3805 47.2961 69.8769 45.3468 75.127 45.3468C80.3251 45.3468 84.6655 47.426 88.1483 51.5845V31H100V87.9194H88.1483V81.9156C84.8215 86.4379 80.4811 88.6991 75.127 88.6991ZM70.9165 75.4439C72.8918 77.5751 75.3089 78.6407 78.1679 78.6407C81.0269 78.6407 83.418 77.5751 85.3413 75.4439C87.3166 73.2607 88.3042 70.4277 88.3042 66.945C88.3042 63.5662 87.3166 60.8112 85.3413 58.68C83.418 56.4968 81.0269 55.4052 78.1679 55.4052C75.3089 55.4052 72.8918 56.4968 70.9165 58.68C68.9412 60.8112 67.9536 63.6182 67.9536 67.1009C67.9536 70.4797 68.9412 73.2607 70.9165 75.4439Z" fill="url(#paint1_linear_43_186)"/>
<defs>
<linearGradient id="paint0_linear_43_186" x1="14.5" y1="39.9275" x2="90.2922" y2="59.5154" gradientUnits="userSpaceOnUse">
<stop stop-color="#1455FF"/>
<stop offset="1" stop-color="#00B2FF"/>
</linearGradient>
<linearGradient id="paint1_linear_43_186" x1="14.5" y1="39.9275" x2="90.2922" y2="59.5154" gradientUnits="userSpaceOnUse">
<stop stop-color="#1455FF"/>
<stop offset="1" stop-color="#00B2FF"/>
</linearGradient>
</defs>
</svg>
