<svg width="100" height="120" viewBox="0 0 100 120" fill="none" xmlns="http://www.w3.org/2000/svg">
<path d="M28.945 87.3739C20.6674 87.3739 13.7603 84.5788 8.22394 78.9887C2.74131 73.3448 0 66.4109 0 58.1869C0 50.0167 2.76819 43.1097 8.30457 37.4658C13.8409 31.8219 20.8824 29 29.4288 29C34.3202 29 38.4321 29.8063 41.7647 31.4188C45.0973 32.9776 48.2686 35.2351 51.2787 38.1915L43.861 46.7379C41.4422 44.5341 39.1578 42.9484 37.0077 41.9809C34.9114 40.9597 32.3583 40.449 29.3482 40.449C24.6181 40.449 20.6942 42.1691 17.5767 45.6091C14.5128 48.9955 12.9809 53.1881 12.9809 58.1869C12.9809 63.132 14.5128 67.3246 17.5767 70.7647C20.6942 74.2048 24.6181 75.9248 29.3482 75.9248C32.3583 75.9248 34.9652 75.3873 37.169 74.3123C39.3728 73.2373 41.711 71.571 44.1835 69.3134L52.085 77.7793C49.0211 81.0581 45.6886 83.4769 42.0872 85.0357C38.5396 86.5945 34.1589 87.3739 28.945 87.3739Z" fill="url(#paint0_linear_43_185)"/>
<path d="M75.0863 87.2126C70.4637 87.2126 66.8624 85.7882 64.2823 82.9394C61.7022 80.0906 60.4122 76.1667 60.4122 71.1679V43.1903H72.6675V67.2978C72.6675 70.1466 73.3125 72.3235 74.6025 73.8285C75.8926 75.3336 77.7201 76.0861 80.0852 76.0861C82.4502 76.0861 84.3046 75.3336 85.6484 73.8285C87.046 72.3235 87.7447 70.1466 87.7447 67.2978V43.1903H100V86.4063H87.7447V80.2787C84.1434 84.9013 79.9239 87.2126 75.0863 87.2126Z" fill="url(#paint1_linear_43_185)"/>
<defs>
<linearGradient id="paint0_linear_43_185" x1="14.5" y1="38.0076" x2="90.3763" y2="57.4429" gradientUnits="userSpaceOnUse">
<stop stop-color="#1455FF"/>
<stop offset="1" stop-color="#00B2FF"/>
</linearGradient>
<linearGradient id="paint1_linear_43_185" x1="14.5" y1="38.0076" x2="90.3763" y2="57.4429" gradientUnits="userSpaceOnUse">
<stop stop-color="#1455FF"/>
<stop offset="1" stop-color="#00B2FF"/>
</linearGradient>
</defs>
</svg>
