<svg width="132" height="30" viewBox="0 0 132 30" fill="none" xmlns="http://www.w3.org/2000/svg">
<path d="M14.1875 29.3281C10.1301 29.3281 6.74464 27.9581 4.03098 25.2181C1.34366 22.4517 0 19.0531 0 15.0221C0 11.0175 1.35683 7.63197 4.0705 4.86561C6.78416 2.09926 10.2355 0.716079 14.4246 0.716079C16.8221 0.716079 18.8376 1.11127 20.471 1.90166C22.1045 2.6657 23.6589 3.77224 25.1343 5.22129L21.4985 9.41034C20.313 8.33015 19.1933 7.55293 18.1394 7.0787C17.1119 6.57812 15.8604 6.32783 14.3851 6.32783C12.0666 6.32783 10.1433 7.17091 8.61523 8.85707C7.11349 10.5169 6.36262 12.5719 6.36262 15.0221C6.36262 17.446 7.11349 19.501 8.61523 21.1871C10.1433 22.8733 12.0666 23.7164 14.3851 23.7164C15.8604 23.7164 17.1382 23.4529 18.2184 22.926C19.2986 22.399 20.4447 21.5823 21.6566 20.4758L25.5295 24.6253C24.0278 26.2324 22.3943 27.418 20.6291 28.1821C18.8903 28.9461 16.743 29.3281 14.1875 29.3281Z" fill="#332E2D"/>
<path d="M36.8037 29.2491C34.5379 29.2491 32.7727 28.5509 31.5081 27.1545C30.2434 25.7582 29.6111 23.8349 29.6111 21.3847V7.67149H35.6181V19.4878C35.6181 20.8841 35.9342 21.9512 36.5665 22.6889C37.1989 23.4266 38.0946 23.7954 39.2539 23.7954C40.4131 23.7954 41.3221 23.4266 41.9807 22.6889C42.6657 21.9512 43.0082 20.8841 43.0082 19.4878V7.67149H49.0152V28.8539H43.0082V25.8504C41.243 28.1162 39.1748 29.2491 36.8037 29.2491Z" fill="#332E2D"/>
<path d="M73.6376 29.4072L70.4365 26.1666C67.9336 28.2216 65.2331 29.2491 62.335 29.2491C59.6214 29.2491 57.3951 28.5246 55.6563 27.0755C53.9174 25.6001 53.048 23.6373 53.048 21.1871C53.048 17.7621 54.8395 15.2329 58.4226 13.5994C57.1317 11.7815 56.4862 9.91092 56.4862 7.98765C56.4862 5.98533 57.237 4.27282 58.7388 2.85012C60.2669 1.42743 62.3087 0.716079 64.8643 0.716079C67.1828 0.716079 69.0533 1.38791 70.476 2.73157C71.9251 4.07523 72.6496 5.74821 72.6496 7.75053C72.6496 11.0702 70.7132 13.4808 66.8403 14.9826L70.5156 18.6579C71.385 17.2879 72.2808 15.7071 73.2029 13.9156L77.6686 16.3658C76.2986 18.8423 75.0866 20.7919 74.0328 22.2146L78.1033 26.2851L73.6376 29.4072ZM63.6787 11.7815C64.9433 11.3073 65.8654 10.7803 66.4451 10.2007C67.051 9.62111 67.354 8.89659 67.354 8.02717C67.354 7.23678 67.1169 6.61764 66.6427 6.16975C66.1684 5.69552 65.5361 5.45841 64.7457 5.45841C63.929 5.45841 63.2703 5.72187 62.7698 6.24879C62.2955 6.77572 62.0584 7.47389 62.0584 8.34332C62.0584 9.39717 62.5985 10.5432 63.6787 11.7815ZM63.0464 24.2696C64.3637 24.2696 65.6942 23.7427 67.0378 22.6889L61.7423 17.3142C60.0297 18.21 59.1735 19.4483 59.1735 21.029C59.1735 22.0039 59.5292 22.7942 60.2405 23.4002C60.9782 23.9798 61.9135 24.2696 63.0464 24.2696Z" fill="#332E2D"/>
<path d="M95.5032 29.3281C91.4459 29.3281 88.0604 27.9581 85.3467 25.2181C82.6594 22.4517 81.3158 19.0531 81.3158 15.0221C81.3158 11.0175 82.6726 7.63197 85.3863 4.86561C88.0999 2.09926 91.5513 0.716079 95.7403 0.716079C98.1379 0.716079 100.153 1.11127 101.787 1.90166C103.42 2.6657 104.975 3.77224 106.45 5.22129L102.814 9.41034C101.629 8.33015 100.509 7.55293 99.4552 7.0787C98.4277 6.57812 97.1762 6.32783 95.7008 6.32783C93.3824 6.32783 91.4591 7.17091 89.931 8.85707C88.4293 10.5169 87.6784 12.5719 87.6784 15.0221C87.6784 17.446 88.4293 19.501 89.931 21.1871C91.4591 22.8733 93.3824 23.7164 95.7008 23.7164C97.1762 23.7164 98.454 23.4529 99.5342 22.926C100.614 22.399 101.76 21.5823 102.972 20.4758L106.845 24.6253C105.344 26.2324 103.71 27.418 101.945 28.1821C100.206 28.9461 98.0588 29.3281 95.5032 29.3281Z" fill="#332E2D"/>
<path d="M119.393 29.2491C116.759 29.2491 114.493 28.2611 112.596 26.2851C110.699 24.3092 109.751 21.6218 109.751 18.2232C109.751 14.8508 110.686 12.1899 112.556 10.2403C114.453 8.26428 116.732 7.2763 119.393 7.2763C122.028 7.2763 124.228 8.33015 125.993 10.4378V0.00473022H132V28.8539H125.993V25.8109C124.307 28.103 122.107 29.2491 119.393 29.2491ZM117.259 22.5308C118.26 23.611 119.486 24.1511 120.935 24.1511C122.384 24.1511 123.596 23.611 124.57 22.5308C125.572 21.4242 126.072 19.9884 126.072 18.2232C126.072 16.5107 125.572 15.1143 124.57 14.0341C123.596 12.9276 122.384 12.3743 120.935 12.3743C119.486 12.3743 118.26 12.9276 117.259 14.0341C116.258 15.1143 115.758 16.537 115.758 18.3022C115.758 20.0147 116.258 21.4242 117.259 22.5308Z" fill="#332E2D"/>
<path d="M73.6376 29.4072L70.4365 26.1666C67.9336 28.2216 65.2331 29.2491 62.335 29.2491C59.6214 29.2491 57.3951 28.5246 55.6563 27.0755C53.9174 25.6001 53.048 23.6373 53.048 21.1871C53.048 17.7621 54.8395 15.2329 58.4226 13.5994C57.1317 11.7815 56.4862 9.91092 56.4862 7.98765C56.4862 5.98533 57.237 4.27282 58.7388 2.85012C60.2669 1.42743 62.3087 0.716079 64.8643 0.716079C67.1828 0.716079 69.0533 1.38791 70.476 2.73157C71.9251 4.07523 72.6496 5.74821 72.6496 7.75053C72.6496 11.0702 70.7132 13.4808 66.8403 14.9826L70.5156 18.6579C71.385 17.2879 72.2808 15.7071 73.2029 13.9156L77.6686 16.3658C76.2986 18.8423 75.0866 20.7919 74.0328 22.2146L78.1033 26.2851L73.6376 29.4072ZM63.6787 11.7815C64.9433 11.3073 65.8654 10.7803 66.4451 10.2007C67.051 9.62111 67.354 8.89659 67.354 8.02717C67.354 7.23678 67.1169 6.61764 66.6427 6.16975C66.1684 5.69552 65.5361 5.45841 64.7457 5.45841C63.929 5.45841 63.2703 5.72187 62.7698 6.24879C62.2955 6.77572 62.0584 7.47389 62.0584 8.34332C62.0584 9.39717 62.5985 10.5432 63.6787 11.7815ZM63.0464 24.2696C64.3637 24.2696 65.6942 23.7427 67.0378 22.6889L61.7423 17.3142C60.0297 18.21 59.1735 19.4483 59.1735 21.029C59.1735 22.0039 59.5292 22.7942 60.2405 23.4002C60.9782 23.9798 61.9135 24.2696 63.0464 24.2696Z" fill="#332E2D"/>
<path d="M73.6376 29.4075L70.4366 26.1669C67.9337 28.2219 65.2332 29.2494 62.3351 29.2494C59.6214 29.2494 57.3952 28.5249 55.6563 27.0758C53.9175 25.6005 53.048 23.6377 53.048 21.1875C53.048 17.7624 54.8396 15.2332 58.4227 13.5997C57.1317 11.7818 56.4862 9.91126 56.4862 7.98798C56.4862 5.98567 57.2371 4.27316 58.7388 2.85046C60.2669 1.42776 62.3087 0.716415 64.8643 0.716415C67.1828 0.716415 69.0534 1.38824 70.4761 2.7319C71.9251 4.07556 72.6497 5.74855 72.6497 7.75086C72.6497 11.0705 70.7132 13.4812 66.8403 14.9829L70.5156 18.6582C71.385 17.2882 72.2808 15.7074 73.2029 13.9159L77.6686 16.3661C76.2986 18.8426 75.0867 20.7923 74.0328 22.215L78.1033 26.2855L73.6376 29.4075ZM63.6788 11.7818C64.9434 11.3076 65.8655 10.7807 66.4451 10.2011C67.0511 9.62145 67.3541 8.89693 67.3541 8.0275C67.3541 7.23711 67.1169 6.61798 66.6427 6.17009C66.1685 5.69586 65.5362 5.45874 64.7458 5.45874C63.929 5.45874 63.2704 5.7222 62.7698 6.24913C62.2956 6.77605 62.0585 7.47423 62.0585 8.34365C62.0585 9.3975 62.5986 10.5436 63.6788 11.7818ZM63.0464 24.27C64.3638 24.27 65.6942 23.743 67.0379 22.6892L61.7423 17.3146C60.0298 18.2103 59.1735 19.4486 59.1735 21.0294C59.1735 22.0042 59.5292 22.7946 60.2406 23.4005C60.9783 23.9802 61.9136 24.27 63.0464 24.27Z" fill="url(#paint0_linear_38_111)"/>
<path d="M73.6376 29.4075L70.4366 26.1669C67.9337 28.2219 65.2332 29.2494 62.3351 29.2494C59.6214 29.2494 57.3952 28.5249 55.6563 27.0758C53.9175 25.6005 53.048 23.6377 53.048 21.1875C53.048 17.7624 54.8396 15.2332 58.4227 13.5997C57.1317 11.7818 56.4862 9.91126 56.4862 7.98798C56.4862 5.98567 57.2371 4.27316 58.7388 2.85046C60.2669 1.42776 62.3087 0.716415 64.8643 0.716415C67.1828 0.716415 69.0534 1.38824 70.4761 2.7319C71.9251 4.07556 72.6497 5.74855 72.6497 7.75086C72.6497 11.0705 70.7132 13.4812 66.8403 14.9829L70.5156 18.6582C71.385 17.2882 72.2808 15.7074 73.2029 13.9159L77.6686 16.3661C76.2986 18.8426 75.0867 20.7923 74.0328 22.215L78.1033 26.2855L73.6376 29.4075ZM63.6788 11.7818C64.9434 11.3076 65.8655 10.7807 66.4451 10.2011C67.0511 9.62145 67.3541 8.89693 67.3541 8.0275C67.3541 7.23711 67.1169 6.61798 66.6427 6.17009C66.1685 5.69586 65.5362 5.45874 64.7458 5.45874C63.929 5.45874 63.2704 5.7222 62.7698 6.24913C62.2956 6.77605 62.0585 7.47423 62.0585 8.34365C62.0585 9.3975 62.5986 10.5436 63.6788 11.7818ZM63.0464 24.27C64.3638 24.27 65.6942 23.743 67.0379 22.6892L61.7423 17.3146C60.0298 18.2103 59.1735 19.4486 59.1735 21.0294C59.1735 22.0042 59.5292 22.7946 60.2406 23.4005C60.9783 23.9802 61.9136 24.27 63.0464 24.27Z" fill="url(#paint1_linear_38_111)"/>
<defs>
<linearGradient id="paint0_linear_38_111" x1="63.7717" y1="8.95181" x2="72.42" y2="12.4227" gradientUnits="userSpaceOnUse">
<stop stop-color="#1455FF"/>
<stop offset="1" stop-color="#00B2FF"/>
</linearGradient>
<linearGradient id="paint1_linear_38_111" x1="63.7717" y1="8.95181" x2="72.42" y2="12.4227" gradientUnits="userSpaceOnUse">
<stop stop-color="#1455FF"/>
<stop offset="1" stop-color="#00B2FF"/>
</linearGradient>
</defs>
</svg>
