<svg width="36" height="50" viewBox="0 0 36 50" fill="none" xmlns="http://www.w3.org/2000/svg">
<path d="M0 49.5V41.0803L16.0803 27.8986C19.2549 25.2761 21.4404 23.1826 22.6366 21.6183C23.8329 20.008 24.431 18.2366 24.431 16.3042C24.431 14.3258 23.8329 12.7845 22.6366 11.6803C21.4404 10.5761 19.8761 10.0239 17.9437 10.0239C16.1493 10.0239 14.516 10.53 13.0437 11.5423C11.6174 12.5085 9.96103 14.1648 8.07465 16.5113L0.621127 10.507C3.15164 7.05634 5.75117 4.52582 8.41972 2.91549C11.1343 1.30516 14.539 0.5 18.6338 0.5C23.6488 0.5 27.6747 1.88028 30.7113 4.64085C33.7479 7.3554 35.2662 10.9901 35.2662 15.5451C35.2662 18.1676 34.7601 20.5371 33.7479 22.6535C32.7357 24.7239 31.4244 26.5643 29.8141 28.1746C28.2038 29.739 25.7883 31.7634 22.5676 34.2479L14.7 40.3211H35.7493V49.5H0Z" fill="url(#paint0_linear_38_109)"/>
<defs>
<linearGradient id="paint0_linear_38_109" x1="-9.85174" y1="6.36613" x2="24.1537" y2="-9.4174" gradientUnits="userSpaceOnUse">
<stop stop-color="#1455FF"/>
<stop offset="1" stop-color="#00B2FF"/>
</linearGradient>
</defs>
</svg>
